<svg width="482" height="851" viewBox="0 0 482 851" fill="none" xmlns="http://www.w3.org/2000/svg">
<rect x="432" y="15" width="50" height="820" fill="black"/>
<rect y="15" width="50" height="820" fill="black"/>
<rect y="819" width="482" height="32" fill="black"/>
<rect width="482" height="32" fill="black"/>
<path d="M41.5183 58.4883C42.3392 57.9659 42.7002 56.9371 43.1322 56.115C45.1025 52.3651 47.1538 48.6823 49.5244 45.1659C51.9096 41.6279 54.5956 38.327 57.3089 35.0397C58.3115 33.8251 60.5385 31.8678 60.9481 30.2297C61.16 29.3818 59.3753 31.0115 58.6697 31.5271C55.8481 33.589 53.0258 35.6514 50.1256 37.6029C46.634 39.9524 49.8443 36.9396 50.8218 36.1472C53.7205 33.7976 56.8774 31.6722 59.9987 29.6285C61.973 28.3358 64.5297 28.869 66.8023 28.869C69.4477 28.869 71.8247 28.5416 74.4287 28.2994C76.9116 28.0684 79.8948 28.2804 82.2132 27.2868C83.0654 26.9215 83.8802 26.5906 84.8081 26.5906" stroke="black" stroke-width="10" stroke-linecap="round"/>
<path d="M73.8556 31.7857C72.4192 32.4256 73.6342 31.8619 71.8045 32.8075C71.1497 33.1458 69.6289 33.9922 68.8078 34.0885C68.0457 34.1779 68.0424 33.6638 68.213 33.1506C68.412 32.5519 68.937 31.9921 69.4368 31.6256C70.1436 31.1073 70.97 31.1264 71.7968 31.2367" stroke="black" stroke-width="10" stroke-linecap="round"/>
<path d="M62.8949 35.2937C60.5417 38.1137 58.3359 41.0591 56.3515 44.1459C55.3999 45.6262 54.4841 47.1287 53.5302 48.6082C52.716 49.8711 51.8213 51.1282 50.9263 52.3354C50.4011 53.0438 49.8067 53.8273 49.3837 54.6028C48.1292 56.9028 47.5368 59.8189 47.0956 62.3782C46.7921 64.1381 46.347 65.8791 46.0292 67.6274" stroke="black" stroke-width="10" stroke-linecap="round"/>
<path d="M78.456 31.1006C78.456 31.5475 77.9893 31.3361 77.752 31.5303C77.3259 31.8789 76.9877 31.8623 76.4475 32.0324C75.0317 32.4781 73.4174 32.5122 72.0835 33.1972C71.3102 33.5943 70.4499 33.7973 69.7281 34.2894C68.67 35.0109 67.5655 35.7462 66.6945 36.6914C66.3139 37.1045 65.9041 37.4888 65.5246 37.9028C65.0982 38.368 64.5549 38.6846 64.1476 39.1659C63.4647 39.973 62.9588 41.0154 62.2322 41.7646C61.0165 43.0183 59.9824 44.4657 58.8259 45.7817C57.4474 47.3504 56.5175 49.2145 55.2954 50.9067C54.6946 51.7386 54.2106 52.6448 53.4318 53.3553C52.3791 54.3156 51.3588 55.1964 50.4552 56.3008C49.748 57.1651 49.1852 58.3134 48.0791 58.6821" stroke="black" stroke-width="10" stroke-linecap="round"/>
<path d="M392 32.5H432V73L418.5 45L422.5 54V54.5V55L422.25 54.5H422C421.6 54.1 421.833 54 422 54L422.25 54.5H422.5V54L421.5 53.0714L408.5 41L406.297 39.2436L392 32.5Z" fill="black"/>
<path d="M418.5 45L432 73V32.5H392L406.297 39.2436M418.5 45L422.5 54M418.5 45L408.5 41M418.5 45L406.297 39.2436M408.5 41L406.297 39.2436M408.5 41L421.5 53.0714M422.5 54L421.5 53.0714M422.5 54V54.5M421.5 54V53.0714M422.5 54.5V55M422.5 54.5H422C421.6 54.1 421.833 54 422 54L422.5 55M422.5 55L423 55.5V56" stroke="black"/>
<path d="M432 819H391.5C413.931 809.29 422.915 801.214 432 781.5V819Z" fill="black" stroke="black"/>
<path d="M410.264 809.088C410.638 809.054 411.017 808.876 411.345 808.705C411.741 808.499 412.145 808.29 412.519 808.047C412.757 807.893 413.025 807.799 413.263 807.642C413.575 807.437 413.889 807.218 414.137 806.936C414.406 806.63 414.65 806.348 414.856 805.995C415.045 805.669 415.23 805.334 415.435 805.019C415.576 804.8 415.712 804.548 415.905 804.369C416.125 804.165 416.374 803.995 416.605 803.804C417.03 803.453 417.456 803.098 417.912 802.789C418.339 802.499 418.779 802.183 419.099 801.778C419.878 800.793 420.468 799.68 421.111 798.608" stroke="black" stroke-width="2" stroke-linecap="round"/>
<path d="M421.704 799.088C422.048 798.774 422.407 798.507 422.677 798.118C422.984 797.675 423.16 797.184 423.355 796.687C423.442 796.465 423.555 796.254 423.64 796.031C423.7 795.875 423.734 795.709 423.807 795.557C423.962 795.233 424.182 794.944 424.346 794.625C424.684 793.968 424.964 793.263 425.363 792.642C425.479 792.462 425.55 792.255 425.684 792.086C425.826 791.906 425.972 791.73 426.11 791.546" stroke="black" stroke-width="2" stroke-linecap="round"/>
<path d="M421.647 798.072C421.724 798.051 421.796 797.96 421.851 797.91C422.025 797.754 422.177 797.584 422.327 797.406C422.572 797.115 422.767 796.757 423.044 796.496C423.487 796.078 423.865 795.619 424.234 795.132C424.467 794.824 424.716 794.528 424.996 794.261C425.174 794.092 425.373 793.951 425.546 793.778" stroke="black" stroke-width="2" stroke-linecap="round"/>
<path d="M426.393 791.179C426.459 791.021 426.551 790.877 426.638 790.731C426.827 790.411 426.991 790.077 427.182 789.759C427.468 789.285 427.725 788.804 427.975 788.311C428.207 787.851 428.496 787.419 428.75 786.971C429.036 786.464 429.208 785.915 429.45 785.389C429.673 784.902 429.966 784.465 430.25 784.014C430.634 783.404 430.969 782.766 431.336 782.147C432.04 780.959 432.804 779.801 433.454 778.581" stroke="black" stroke-width="2" stroke-linecap="round"/>
<path d="M431.308 781.095C431.354 780.742 431.568 780.405 431.703 780.081C431.907 779.594 432.069 779.09 432.275 778.603C432.486 778.102 432.722 777.609 432.905 777.097C433.048 776.698 433.239 776.315 433.392 775.92C433.51 775.615 433.601 775.299 433.756 775.01C433.876 774.785 434.008 774.566 434.133 774.344" stroke="black" stroke-width="2" stroke-linecap="round"/>
<path d="M433.003 774.627C433.063 774.644 432.649 775.131 432.573 775.179C432.476 775.24 432.339 775.248 432.383 775.094C432.42 774.964 432.39 775.374 432.339 775.499C432.254 775.708 432.107 775.875 432.049 776.096C431.836 776.904 431.699 777.737 431.507 778.553C431.424 778.908 431.341 779.264 431.258 779.62C431.144 780.102 431.101 780.597 430.971 781.075C430.857 781.49 430.79 781.917 430.699 782.338C430.632 782.648 430.573 782.953 430.573 783.27" stroke="black" stroke-linecap="square"/>
<path d="M428.314 786.49C428.437 786.33 428.533 786.114 428.634 785.938C428.728 785.775 428.842 785.625 428.929 785.458C429.034 785.254 429.164 785.07 429.274 784.868C429.564 784.337 429.733 783.738 429.98 783.189C430.176 782.753 430.319 782.316 430.446 781.858C430.527 781.569 430.53 781.233 430.674 780.965C430.789 780.752 430.853 780.542 430.906 780.304C430.938 780.162 430.958 779.994 431.038 779.868C431.108 779.758 431.088 779.581 431.116 779.457C431.186 779.154 431.29 778.893 431.399 778.603C431.463 778.433 431.647 778.173 431.647 777.988C431.647 777.784 431.803 777.535 431.901 777.367" stroke="black" stroke-linecap="square"/>
<path d="M49 773.067V782.567H52C52 782.567 49 772.067 49 773.067Z" fill="black"/>
<path d="M49 773.067C49 774.067 49 782.567 49 782.567M49 773.067C49 772.067 52 782.567 52 782.567H49M49 773.067V782.567" stroke="black"/>
<path d="M51.0074 779.396L52.0496 788.838L55.0315 788.509C55.0315 788.509 50.8977 778.402 51.0074 779.396Z" fill="black"/>
<path d="M51.0074 779.396C51.1171 780.39 52.0496 788.838 52.0496 788.838M51.0074 779.396C50.8977 778.402 55.0315 788.509 55.0315 788.509L52.0496 788.838M51.0074 779.396L52.0496 788.838" stroke="black"/>
<path d="M54.0179 786.863L56.5445 796.02L59.4364 795.223C59.4364 795.223 53.7519 785.899 54.0179 786.863Z" fill="black"/>
<path d="M54.0179 786.863C54.2838 787.827 56.5445 796.02 56.5445 796.02M54.0179 786.863C53.7519 785.899 59.4364 795.223 59.4364 795.223L56.5445 796.02M54.0179 786.863L56.5445 796.02" stroke="black"/>
<path d="M60 807.5V796L69 807.5H60Z" fill="black" stroke="black"/>
<path d="M65.528 812.594L64 801.196L74.4482 811.398L65.528 812.594Z" fill="black" stroke="black"/>
<path d="M71.8848 817.39L69 806.258L80.597 815.132L71.8848 817.39Z" fill="black" stroke="black"/>
<path d="M77.9774 820.903L74 810.113L86.4219 817.79L77.9774 820.903Z" fill="black" stroke="black"/>
<path d="M84.8974 824.238L80 813.833L93.0405 820.405L84.8974 824.238Z" fill="black" stroke="black"/>
<path d="M86.5297 824.564L79.9092 815.161L93.8887 819.382L86.5297 824.564Z" fill="black" stroke="black"/>
<path d="M50 819H76.5L67 807.5L51 783L50 783.5V819Z" fill="black" stroke="black"/>
<path d="M74.98 815.056C75.3432 816.162 75.66 817.371 76.3325 818.338C76.4662 818.53 76.7152 818.809 76.9819 818.809C77.1419 818.809 76.8918 818.335 76.8848 818.323C76.7741 818.13 76.6348 817.952 76.4818 817.791C76.3371 817.639 76.1148 817.404 75.907 817.327C75.8656 817.312 75.9022 817.42 75.9249 817.458C76.1332 817.806 76.4081 818.122 76.6639 818.433C76.8561 818.667 77.1647 819.033 77.3715 819.26C77.5415 819.447 77.7628 819.729 78.003 819.844C78.199 819.938 78.1465 819.431 78.1507 819.356" stroke="black" stroke-linecap="square"/>
<path d="M389 819.5L393 818L396 817L397.5 816.5V816L388.5 819.5V819L389 820L391.5 819.5L394.5 818L399 816V815.5" stroke="black"/>
<path d="M398.274 815.903C398.352 815.877 398.426 815.815 398.509 815.805C398.555 815.799 398.585 815.787 398.623 815.759C398.642 815.744 398.644 815.741 398.617 815.74C398.564 815.74 398.512 815.74 398.459 815.74C398.418 815.74 398.391 815.747 398.356 815.766C398.334 815.777 398.323 815.793 398.305 815.808C398.293 815.818 398.259 815.831 398.299 815.825C398.342 815.819 398.387 815.809 398.428 815.794C398.521 815.76 398.596 815.68 398.691 815.652C398.859 815.602 399.31 815.317 399.159 815.408C399.121 815.43 399.084 815.46 399.043 815.478C398.973 815.509 398.902 815.517 398.827 815.536C398.766 815.551 398.701 815.549 398.64 815.568C398.567 815.591 398.502 815.619 398.437 815.659" stroke="black" stroke-linecap="round" stroke-dasharray="2 4 6 8"/>
<path d="M398.872 815.695C398.956 815.669 398.957 815.559 399.016 815.512C399.075 815.465 399.129 815.421 399.183 815.369C399.235 815.32 399.309 815.29 399.358 815.24C399.408 815.191 399.512 815.204 399.574 815.175C399.723 815.104 399.86 815.003 400.012 814.94C400.088 814.909 400.172 814.888 400.248 814.852C400.293 814.831 400.341 814.815 400.383 814.79C400.43 814.762 400.469 814.728 400.519 814.708" stroke="black" stroke-linecap="round" stroke-dasharray="2 4 6 8"/>
<path d="M400.573 814.699C400.725 814.553 400.909 814.485 401.103 814.414C401.15 814.397 401.197 814.366 401.239 814.339C401.277 814.315 401.304 814.274 401.348 814.263C401.389 814.253 401.439 814.227 401.478 814.209C401.533 814.183 401.591 814.166 401.646 814.143C401.707 814.118 401.753 814.064 401.815 814.044C401.867 814.027 401.915 813.997 401.965 813.975C402.013 813.955 402.06 813.926 402.11 813.909C402.175 813.886 402.228 813.851 402.291 813.821C402.41 813.766 402.517 813.699 402.644 813.659C402.81 813.605 402.963 813.496 403.114 813.409C403.377 813.258 403.64 813.111 403.901 812.958C404.207 812.777 404.502 812.578 404.811 812.4C404.946 812.323 405.088 812.263 405.214 812.167C405.337 812.073 405.466 811.99 405.587 811.894C405.713 811.793 405.842 811.717 405.978 811.633C406.058 811.584 406.133 811.522 406.205 811.461C406.252 811.421 406.279 811.374 406.32 811.333" stroke="black" stroke-linecap="round" stroke-dasharray="2 4 6 8"/>
<path d="M405.402 812.467C407.324 811.069 409.125 809.557 410.72 807.789C410.849 807.646 410.97 807.497 411.09 807.347C411.109 807.323 411.16 807.249 411.136 807.267C411.052 807.331 410.983 807.412 410.907 807.484C410.25 808.115 409.593 808.745 408.917 809.356C407.201 810.907 405.42 812.444 403.427 813.634C403.317 813.7 402.991 813.89 403.078 813.795C403.444 813.398 403.901 813.051 404.315 812.711C405.765 811.523 407.266 810.408 408.801 809.334C408.851 809.299 408.894 809.252 408.949 809.229C409.119 809.157 408.66 809.459 408.512 809.57C407.712 810.172 406.882 810.728 406.037 811.266C405.001 811.926 403.95 812.562 402.9 813.2C402.516 813.434 402.076 813.763 401.653 813.945C401.645 813.949 401.657 813.926 401.664 813.92C401.885 813.721 402.121 813.54 402.35 813.351C403.679 812.254 405.019 811.172 406.408 810.15C407.51 809.34 410.86 806.97 409.73 807.741C409.263 808.06 408.823 808.443 408.381 808.792C407.236 809.697 406.089 810.599 404.894 811.437C402.75 812.938 400.475 814.307 398.117 815.445C397.524 815.731 396.921 815.995 396.323 816.271C396.215 816.32 395.581 816.636 396.105 816.267C396.79 815.784 397.54 815.39 398.291 815.024C399.523 814.423 400.79 813.905 402.051 813.371C402.544 813.161 403.158 812.959 403.618 812.654C403.754 812.564 403.298 812.725 403.146 812.786C401.096 813.604 399.064 814.473 397.027 815.326C395.944 815.779 394.741 816.194 393.799 816.922" stroke="black" stroke-linecap="round" stroke-dasharray="2 4 6 8"/>
<path d="M411.644 807.439C412.517 806.693 413.559 806.139 414.524 805.526C415.174 805.113 415.9 804.65 416.533 804.199C416.709 804.074 416.88 803.943 417.047 803.807C417.143 803.729 417.413 803.537 417.289 803.526C417.239 803.521 417.19 803.55 417.145 803.572C417.018 803.633 416.896 803.703 416.774 803.773C416.284 804.053 415.785 804.363 415.309 804.661C414.478 805.181 413.855 805.584 413.018 806.115C411.909 806.817 410.778 807.493 409.69 808.228C409.641 808.261 409.024 808.676 408.912 808.848C408.846 808.949 409.158 808.816 409.264 808.758C409.647 808.546 410.354 808.074 410.67 807.855C411.733 807.119 412.783 806.349 413.755 805.494C414.359 804.962 415.073 804.338 415.377 803.563C415.393 803.522 415.424 803.4 415.394 803.432C415.158 803.68 414.98 804.014 414.752 804.271C413.842 805.296 412.759 806.106 411.649 806.899C411.277 807.165 410.876 807.437 410.511 807.717C410.254 807.915 410.269 807.962 410.576 807.774C411.587 807.155 412.484 806.321 413.333 805.502C414.255 804.612 415.152 803.671 415.874 802.608C415.893 802.58 415.948 802.495 415.935 802.526C415.908 802.592 415.777 802.817 415.768 802.831C415.062 803.928 414.053 804.78 413.06 805.608C412.79 805.833 412.374 806.171 412.077 806.41C411.879 806.568 411.952 806.509 412.127 806.341C413.708 804.82 415.29 803.287 416.772 801.668C417.823 800.52 418.817 799.331 419.474 797.909C419.544 797.76 419.655 797.29 419.668 797.454C419.673 797.518 419.641 797.58 419.623 797.642C419.509 798.039 419.433 798.245 419.247 798.652C418.661 799.931 417.897 801.136 417.105 802.296C416.713 802.871 416.523 803.123 416.122 803.653C416.015 803.793 415.908 803.933 415.8 804.072C415.736 804.154 415.559 804.403 415.594 804.305C415.674 804.081 415.814 803.882 415.94 803.68C416.269 803.157 416.6 802.693 416.983 802.203C417.853 801.094 418.831 800.082 419.752 799.017C419.785 798.979 419.814 798.937 419.85 798.902C419.86 798.893 419.842 798.927 419.836 798.938C419.747 799.101 419.599 799.333 419.513 799.467C419.207 799.945 418.994 800.274 418.638 800.739C418.039 801.522 417.362 802.218 416.671 802.918C416.37 803.223 416.125 803.46 415.856 803.781C415.773 803.879 415.634 803.974 415.644 804.101C415.651 804.193 415.796 803.997 415.858 803.929C416.327 803.417 416.754 802.859 417.194 802.322C417.947 801.402 418.741 800.493 419.378 799.485C419.528 799.246 419.607 799.104 419.705 798.861C419.747 798.756 419.798 798.611 419.652 798.754C419.058 799.334 418.479 799.912 417.852 800.459C417.408 800.845 416.771 801.38 416.335 801.782C415.965 802.124 415.556 802.492 415.308 802.94C415.225 803.091 415.218 803.226 415.218 803.389" stroke="black" stroke-linecap="round" stroke-dasharray="2 4 6 8"/>
<path d="M426.177 787.974C426.089 788.06 426.036 788.155 425.976 788.264C425.732 788.71 425.515 789.177 425.373 789.666C425.165 790.378 425.077 791.11 424.743 791.781C424.498 792.271 424.211 792.746 423.926 793.213C423.622 793.711 423.336 794.222 423.017 794.709C422.345 795.733 421.57 796.68 420.793 797.624C420.542 797.928 420.306 798.244 420.057 798.55C419.986 798.636 419.913 798.722 419.848 798.812C419.704 799.009 420.157 798.435 420.311 798.246C421.656 796.586 423.038 794.959 424.11 793.102C424.529 792.376 424.901 791.605 425.124 790.794C425.254 790.319 425.319 789.822 425.521 789.371C425.725 788.913 426.003 788.494 426.267 788.07C426.343 787.948 426.417 787.826 426.49 787.703C426.538 787.621 426.576 787.549 426.548 787.71C426.508 787.938 426.431 788.158 426.357 788.377C426.23 788.756 426.117 789.14 425.987 789.518C425.868 789.864 425.65 790.137 425.494 790.461C425.411 790.635 425.396 790.839 425.343 791.024" stroke="black" stroke-linecap="round" stroke-dasharray="2 4 6 8"/>
<path d="M427.035 787.807C427.054 787.711 427.111 787.626 427.165 787.545C427.313 787.323 427.484 787.112 427.653 786.906C427.977 786.513 428.27 786.156 428.446 785.671C428.791 784.724 428.87 783.714 429.228 782.774C429.626 781.734 430.079 780.714 430.478 779.675C430.713 779.063 430.941 778.444 431.21 777.846C431.43 777.357 431.751 776.922 431.991 776.443" stroke="black" stroke-linecap="round" stroke-dasharray="2 4 6 8"/>
<path d="M387.36 31.2842C389.2 31.7047 391.052 32.0727 392.894 32.4846C393.854 32.6992 394.722 33.0343 395.631 33.4079C396.263 33.6676 396.889 33.939 397.517 34.206C397.988 34.4061 398.469 34.5821 398.942 34.7798C398.997 34.8029 399.159 34.8789 399.1 34.8655C398.936 34.8281 398.44 34.6504 398.375 34.6281C395.976 33.8069 393.511 33.1028 390.994 32.7484C390.417 32.667 389.884 32.6143 389.312 32.4714C388.9 32.3682 388.677 32.2371 388.363 31.9503C388.249 31.8472 388.664 32.0155 388.805 32.0756C390.005 32.5878 391.232 33.0331 392.439 33.5299C395.898 34.9543 399.409 36.2276 402.919 37.5169C403.952 37.8964 405.01 38.3175 406.015 38.7667C406.711 39.0777 407.49 39.5139 408.093 39.9803C408.161 40.0333 408.785 40.646 408.584 40.5739C407.402 40.1493 406.349 39.3424 405.27 38.714C404.872 38.4822 404.472 38.2457 404.043 38.0742C403.702 37.9378 403.684 38.0147 403.829 38.3281C404.257 39.2554 404.975 40.1975 405.834 40.7684C406.524 41.227 407.271 41.6065 407.991 42.015C408.106 42.0804 409.046 42.7181 408.571 42.3118C407.972 41.7999 407.358 41.3058 406.738 40.8212C406.329 40.5022 405.869 40.0277 405.399 39.7923C404.782 39.4841 406.374 40.7896 406.968 41.1378C408.109 41.8054 409.299 42.4198 410.405 43.1428C411.366 43.7715 412.283 44.533 413.155 45.2797C414.025 46.0245 414.878 46.7838 415.754 47.5222C416.588 48.2252 417.445 48.847 418.128 49.7086C418.666 50.3883 419.053 51.1697 419.503 51.9082C419.99 52.7067 420.467 53.5233 420.984 54.3023C421.928 55.7263 422.787 57.194 423.866 58.5267C424.247 58.9977 424.801 59.5161 425.04 60.0832C425.508 61.1937 423.921 57.9488 423.332 56.8976C423.073 56.4365 422.829 55.9356 422.527 55.4994C422.514 55.4804 422.854 56.2008 422.893 56.2711C423.716 57.7312 424.694 59.0751 425.587 60.4889" stroke="black" stroke-linecap="round" stroke-dasharray="2 4 6 8"/>
<path d="M425.587 60.3701C425.883 61.0796 426.368 61.7338 426.761 62.3883C427.594 63.7731 428.373 65.187 429.096 66.6325C429.778 67.9959 430.366 69.4305 430.956 70.8371C431.425 71.9547 431.927 73.0602 432.328 74.2041C432.51 74.7235 432.731 75.2309 432.902 75.754C432.927 75.8317 433.057 76.6911 433.034 76.6741C432.635 76.3868 432.358 75.595 432.117 75.1901C431.648 74.4023 431.146 73.6403 430.788 72.7927C430.184 71.3646 429.871 69.8149 429.545 68.3045C429.538 68.2719 429.52 68.1743 429.531 68.2055C429.661 68.5546 429.568 68.3398 429.769 68.8123C430.475 70.476 431.139 72.1131 431.586 73.871C432.262 76.5272 432.651 79.2364 432.651 81.9768" stroke="black" stroke-linecap="round" stroke-dasharray="2 4 6 8"/>
<path d="M89.091 27.9156C87.6064 27.9156 86.1478 27.9069 84.6862 28.181C83.86 28.3359 83.1038 28.8571 82.3474 29.2069C82.1779 29.2853 80.2832 30.3433 80.64 30.6704C80.9378 30.9434 82.2181 30.7544 82.5339 30.7493C84.1503 30.723 85.7555 30.6321 87.3405 30.2973C88.6319 30.0246 89.7957 29.6081 90.9993 29.1782C92.2051 28.7475 90.7328 29.026 90.2102 29.1064C87.413 29.5368 84.6707 30.2668 82.0174 31.2443C80.9157 31.6502 79.6342 32.0318 78.6241 32.6432C77.8022 33.1407 77.0396 33.7547 76.1778 34.1857C74.7245 34.9123 73.3132 35.5509 72.0455 36.5961C71.2035 37.2905 70.4417 38.0917 69.7498 38.9349C69.3265 39.4508 69.1878 40.2078 68.7885 40.671C67.9542 41.6387 66.7774 42.2022 65.718 42.8949C64.5281 43.6729 63.6455 44.4849 62.9058 45.6785C61.9134 47.2798 60.6185 48.6454 59.6488 50.2555C58.0035 52.9874 55.7015 55.2553 54.0961 58.0321C53.1728 59.6292 52.1316 61.1432 51.2552 62.7527C50.2127 64.6669 49.0734 66.5747 47.869 68.3914C47.3186 69.2218 47.0476 70.2943 46.7427 71.2395C46.392 72.3266 45.8832 73.3651 45.4729 74.432C44.8288 76.1065 43.6364 78.1352 43.6364 79.956" stroke="black" stroke-width="10" stroke-linecap="round" stroke-dasharray="2 4 6 8"/>
<g filter="url(#filter0_d_461_253)">
<path d="M110.124 31H372.054C405.638 31 432.861 58.2253 432.861 91.8092V759.19C432.861 792.774 405.638 820 372.054 820H110.124C76.5396 820 49.3143 792.774 49.3143 759.19V91.8092C49.3143 58.2253 76.5396 31 110.124 31Z" stroke="white" stroke-width="2"/>
<g style="mix-blend-mode:overlay">
<path d="M371.574 31.8413H110.602C77.2212 31.8413 50.1555 58.907 50.1555 92.2881V758.693C50.1555 792.074 77.2212 819.139 110.602 819.139H371.574C404.955 819.139 432.022 792.074 432.022 758.693V92.2881C432.022 58.907 404.955 31.8413 371.574 31.8413ZM430.181 758.214C430.181 790.858 403.721 817.317 371.077 817.317H111.099C78.4548 817.317 51.9967 790.858 51.9967 758.214V92.7852C51.9967 60.1406 78.4548 33.6825 111.099 33.6825H371.095C403.741 33.6825 430.198 60.1406 430.198 92.7852V758.234L430.181 758.214Z" fill="black"/>
</g>
<path d="M436.127 232.091H433.861V327.428H436.127V232.091Z" fill="url(#paint0_linear_461_253)"/>
<path d="M436.127 327.448V232.126L437.25 233.362C436.679 243.506 436.716 316.068 437.25 326.194L436.127 327.428V327.448Z" fill="url(#paint1_linear_461_253)"/>
<path d="M46.9332 288.009H45.6444V348.4H46.9332V288.009Z" fill="url(#paint2_linear_461_253)"/>
<path d="M45.6444 348.4V288.026L45 288.817C45.3315 295.244 45.2946 341.218 45 347.627L45.6444 348.418V348.4Z" fill="url(#paint3_linear_461_253)"/>
<path d="M48.3141 288.026H46.9331V348.418H48.3141V288.026Z" fill="url(#paint4_linear_461_253)"/>
<path d="M46.9332 212.04H45.6444V272.432H46.9332V212.04Z" fill="url(#paint5_linear_461_253)"/>
<path d="M45.6444 272.432V212.058L45 212.85C45.3315 219.276 45.2946 265.25 45 271.658L45.6444 272.45V272.432Z" fill="url(#paint6_linear_461_253)"/>
<path d="M48.3141 212.04H46.9331V272.432H48.3141V212.04Z" fill="url(#paint7_linear_461_253)"/>
<path d="M46.9332 154.981H45.6444V185.987H46.9332V154.981Z" fill="url(#paint8_linear_461_253)"/>
<path d="M45.6444 185.968V154.981L45 155.717C45.3315 161.793 45.2946 179.156 45 185.213L45.6444 185.95V185.968Z" fill="url(#paint9_linear_461_253)"/>
<path d="M48.3141 154.981H46.9331V185.987H48.3141V154.981Z" fill="url(#paint10_linear_461_253)"/>
</g>
<defs>
<filter id="filter0_d_461_253" x="45" y="30" width="392.25" height="791" filterUnits="userSpaceOnUse" color-interpolation-filters="sRGB">
<feFlood flood-opacity="0" result="BackgroundImageFix"/>
<feColorMatrix in="SourceAlpha" type="matrix" values="0 0 0 0 0 0 0 0 0 0 0 0 0 0 0 0 0 0 127 0" result="hardAlpha"/>
<feOffset/>
<feColorMatrix type="matrix" values="0 0 0 0 0 0 0 0 0 0 0 0 0 0 0 0 0 0 0.1 0"/>
<feBlend mode="normal" in2="BackgroundImageFix" result="effect1_dropShadow_461_253"/>
<feBlend mode="normal" in="SourceGraphic" in2="effect1_dropShadow_461_253" result="shape"/>
</filter>
<linearGradient id="paint0_linear_461_253" x1="434.986" y1="232.091" x2="434.986" y2="327.428" gradientUnits="userSpaceOnUse">
<stop stop-color="#58595A"/>
<stop offset="0.02" stop-color="#E0E1E3"/>
<stop offset="0.04" stop-color="#A7A8A9"/>
<stop offset="0.08" stop-color="#2B1D2A"/>
<stop offset="0.11" stop-color="#8C8C8C"/>
<stop offset="0.9" stop-color="#696969"/>
<stop offset="0.94" stop-color="#2B1D2A"/>
<stop offset="0.96" stop-color="#A7A8A9"/>
<stop offset="0.98" stop-color="#8C8C8C"/>
<stop offset="1" stop-color="#A7A8A9"/>
</linearGradient>
<linearGradient id="paint1_linear_461_253" x1="436.679" y1="232.109" x2="436.679" y2="327.428" gradientUnits="userSpaceOnUse">
<stop stop-color="#676067"/>
<stop offset="0.06" stop-color="#707070"/>
<stop offset="0.19" stop-color="#8A8A8A"/>
<stop offset="0.81" stop-color="#8A8A8A"/>
<stop offset="0.92" stop-color="#707070"/>
<stop offset="1" stop-color="#676067"/>
</linearGradient>
<linearGradient id="paint2_linear_461_253" x1="-1569.55" y1="288.009" x2="-1569.55" y2="348.4" gradientUnits="userSpaceOnUse">
<stop stop-color="#58595A"/>
<stop offset="0.02" stop-color="#E0E1E3"/>
<stop offset="0.04" stop-color="#A7A8A9"/>
<stop offset="0.08" stop-color="#2D1E2C"/>
<stop offset="0.11" stop-color="#8C8C8C"/>
<stop offset="0.9" stop-color="#696969"/>
<stop offset="0.94" stop-color="#2D1E2C"/>
<stop offset="0.96" stop-color="#A7A8A9"/>
<stop offset="0.98" stop-color="#8C8C8C"/>
<stop offset="1" stop-color="#A7A8A9"/>
</linearGradient>
<linearGradient id="paint3_linear_461_253" x1="45.3314" y1="288.026" x2="45.3314" y2="348.4" gradientUnits="userSpaceOnUse">
<stop stop-color="#676067"/>
<stop offset="0.06" stop-color="#707070"/>
<stop offset="0.19" stop-color="#8A8A8A"/>
<stop offset="0.81" stop-color="#8A8A8A"/>
<stop offset="0.92" stop-color="#707070"/>
<stop offset="1" stop-color="#676067"/>
</linearGradient>
<linearGradient id="paint4_linear_461_253" x1="45" y1="348.418" x2="46.8411" y2="288.026" gradientUnits="userSpaceOnUse">
<stop stop-color="#58595A"/>
<stop offset="0.05" stop-color="#2D1E2C"/>
<stop offset="0.52" stop-color="#A7A8A9"/>
<stop offset="0.96" stop-color="#2D1E2C"/>
<stop offset="1" stop-color="#A7A8A9"/>
</linearGradient>
<linearGradient id="paint5_linear_461_253" x1="46.2888" y1="212.021" x2="46.2888" y2="272.412" gradientUnits="userSpaceOnUse">
<stop stop-color="#58595A"/>
<stop offset="0.02" stop-color="#E0E1E3"/>
<stop offset="0.04" stop-color="#A7A8A9"/>
<stop offset="0.08" stop-color="#2D1E2C"/>
<stop offset="0.11" stop-color="#8C8C8C"/>
<stop offset="0.9" stop-color="#696969"/>
<stop offset="0.94" stop-color="#2D1E2C"/>
<stop offset="0.96" stop-color="#A7A8A9"/>
<stop offset="0.98" stop-color="#8C8C8C"/>
<stop offset="1" stop-color="#A7A8A9"/>
</linearGradient>
<linearGradient id="paint6_linear_461_253" x1="45.3314" y1="212.04" x2="45.3314" y2="272.412" gradientUnits="userSpaceOnUse">
<stop stop-color="#676067"/>
<stop offset="0.06" stop-color="#707070"/>
<stop offset="0.19" stop-color="#8A8A8A"/>
<stop offset="0.81" stop-color="#8A8A8A"/>
<stop offset="0.92" stop-color="#707070"/>
<stop offset="1" stop-color="#676067"/>
</linearGradient>
<linearGradient id="paint7_linear_461_253" x1="47.6143" y1="272.45" x2="47.6143" y2="212.04" gradientUnits="userSpaceOnUse">
<stop stop-color="#58595A"/>
<stop offset="0.05" stop-color="#2D1E2C"/>
<stop offset="0.52" stop-color="#A7A8A9"/>
<stop offset="0.96" stop-color="#2D1E2C"/>
<stop offset="1" stop-color="#A7A8A9"/>
</linearGradient>
<linearGradient id="paint8_linear_461_253" x1="-1569.55" y1="154.962" x2="-1569.55" y2="185.968" gradientUnits="userSpaceOnUse">
<stop stop-color="#58595A"/>
<stop offset="0.02" stop-color="#E0E1E3"/>
<stop offset="0.04" stop-color="#A7A8A9"/>
<stop offset="0.08" stop-color="#2D1E2C"/>
<stop offset="0.11" stop-color="#8C8C8C"/>
<stop offset="0.9" stop-color="#696969"/>
<stop offset="0.94" stop-color="#2D1E2C"/>
<stop offset="0.96" stop-color="#A7A8A9"/>
<stop offset="0.98" stop-color="#8C8C8C"/>
<stop offset="1" stop-color="#A7A8A9"/>
</linearGradient>
<linearGradient id="paint9_linear_461_253" x1="45.3314" y1="154.981" x2="45.3314" y2="185.968" gradientUnits="userSpaceOnUse">
<stop stop-color="#676067"/>
<stop offset="0.06" stop-color="#707070"/>
<stop offset="0.19" stop-color="#8A8A8A"/>
<stop offset="0.81" stop-color="#8A8A8A"/>
<stop offset="0.92" stop-color="#707070"/>
<stop offset="1" stop-color="#676067"/>
</linearGradient>
<linearGradient id="paint10_linear_461_253" x1="45" y1="185.987" x2="47.6143" y2="154.981" gradientUnits="userSpaceOnUse">
<stop stop-color="#58595A"/>
<stop offset="0.05" stop-color="#2D1E2C"/>
<stop offset="0.52" stop-color="#A7A8A9"/>
<stop offset="0.96" stop-color="#2D1E2C"/>
<stop offset="1" stop-color="#A7A8A9"/>
</linearGradient>
</defs>
</svg>
