<svg width="3078" height="5986" viewBox="0 0 3078 5986" fill="none" xmlns="http://www.w3.org/2000/svg">
<g filter="url(#filter0_ddddd_102_3040)">
<path d="M2139.82 120H937.846C781.198 120 654.209 246.989 654.209 403.637V3466.19C654.209 3622.84 781.198 3749.83 937.846 3749.83H2139.82C2296.47 3749.83 2423.45 3622.84 2423.45 3466.19V403.637C2423.45 246.989 2296.47 120 2139.82 120Z" fill="#E0E1E3"/>
<g style="mix-blend-mode:overlay">
<path d="M2137.62 128.449H940.043C786.86 128.449 662.658 252.651 662.658 405.834V3463.91C662.658 3617.09 786.86 3741.29 940.043 3741.29H2137.62C2290.8 3741.29 2415.01 3617.09 2415.01 3463.91V405.834C2415.01 252.651 2290.8 128.449 2137.62 128.449ZM2406.56 3461.71C2406.56 3611.51 2285.14 3732.93 2135.34 3732.93H942.324C792.521 3732.93 671.107 3611.51 671.107 3461.71V408.115C671.107 258.312 792.521 136.898 942.324 136.898H2135.42C2285.23 136.898 2406.64 258.312 2406.64 408.115V3461.8L2406.56 3461.71Z" fill="black"/>
</g>
<path d="M2132.72 147.713H945.027C800.978 147.713 684.203 264.488 684.203 408.537V3461.29C684.203 3605.34 800.978 3722.11 945.027 3722.11H2132.72C2276.77 3722.11 2393.54 3605.34 2393.54 3461.29V408.537C2393.54 264.488 2276.77 147.713 2132.72 147.713Z" fill="#1D1D1B"/>
<path d="M2433.85 1047.38H2423.45V1484.87H2433.85V1047.38Z" fill="url(#paint0_linear_102_3040)"/>
<path d="M2433.85 1484.96V1047.54L2439 1053.21C2436.38 1099.76 2436.55 1432.74 2439 1479.21L2433.85 1484.87V1484.96Z" fill="url(#paint1_linear_102_3040)"/>
<path d="M647.871 1303.98H641.957V1581.11H647.871V1303.98Z" fill="url(#paint2_linear_102_3040)"/>
<path d="M641.957 1581.11V1304.06L639 1307.69C640.521 1337.18 640.352 1548.15 639 1577.56L641.957 1581.19V1581.11Z" fill="url(#paint3_linear_102_3040)"/>
<path d="M654.208 1304.06H647.871V1581.19H654.208V1304.06Z" fill="url(#paint4_linear_102_3040)"/>
<path d="M647.871 955.365H641.957V1232.5H647.871V955.365Z" fill="url(#paint5_linear_102_3040)"/>
<path d="M641.957 1232.5V955.449L639 959.082C640.521 988.57 640.352 1199.54 639 1228.95L641.957 1232.58V1232.5Z" fill="url(#paint6_linear_102_3040)"/>
<path d="M654.208 955.365H647.871V1232.5H654.208V955.365Z" fill="url(#paint7_linear_102_3040)"/>
<path d="M647.871 693.526H641.957V835.81H647.871V693.526Z" fill="url(#paint8_linear_102_3040)"/>
<path d="M641.957 835.725V693.526L639 696.906C640.521 724.788 640.352 804.463 639 832.261L641.957 835.641V835.725Z" fill="url(#paint9_linear_102_3040)"/>
<path d="M654.208 693.526H647.871V835.81H654.208V693.526Z" fill="url(#paint10_linear_102_3040)"/>
<path d="M1672.5 373.896H1389.87C1358.1 373.896 1332.33 348.126 1332.33 316.357C1332.33 284.589 1358.1 258.734 1389.87 258.734H1672.5C1704.26 258.734 1730.03 284.504 1730.03 316.357C1730.03 348.126 1704.26 373.896 1672.5 373.896Z" fill="#1D1D1B"/>
<path d="M1656.53 341.536C1670.43 341.536 1681.7 330.263 1681.7 316.358C1681.7 302.452 1670.43 291.179 1656.53 291.179C1642.62 291.179 1631.35 302.452 1631.35 316.358C1631.35 330.263 1642.62 341.536 1656.53 341.536Z" fill="url(#paint11_linear_102_3040)"/>
<path d="M1656.53 330.721C1664.46 330.721 1670.89 324.29 1670.89 316.358C1670.89 308.425 1664.46 301.994 1656.53 301.994C1648.59 301.994 1642.16 308.425 1642.16 316.358C1642.16 324.29 1648.59 330.721 1656.53 330.721Z" fill="url(#paint12_linear_102_3040)"/>
<path d="M1669.12 316.358C1669.12 323.286 1663.45 328.947 1656.53 328.947C1649.6 328.947 1643.94 323.286 1643.94 316.358C1643.94 309.429 1649.51 303.769 1656.53 303.769C1663.54 303.769 1669.12 309.345 1669.12 316.358Z" fill="url(#paint13_linear_102_3040)"/>
<path style="mix-blend-mode:multiply" d="M1669.12 316.358C1669.12 323.286 1663.45 328.947 1656.53 328.947C1649.6 328.947 1643.94 323.286 1643.94 316.358C1643.94 309.429 1649.51 303.769 1656.53 303.769C1663.54 303.769 1669.12 309.345 1669.12 316.358Z" fill="url(#paint14_radial_102_3040)"/>
<path style="mix-blend-mode:screen" d="M1667.93 322.948C1667.93 320.498 1665.9 318.47 1663.45 318.47C1661 318.47 1658.98 320.498 1658.98 322.948C1658.98 325.398 1661 327.426 1663.45 327.426C1665.9 327.426 1667.93 325.398 1667.93 322.948Z" fill="url(#paint15_radial_102_3040)"/>
</g>
<defs>
<filter id="filter0_ddddd_102_3040" x="0" y="0" width="3078" height="5985.83" filterUnits="userSpaceOnUse" color-interpolation-filters="sRGB">
<feFlood flood-opacity="0" result="BackgroundImageFix"/>
<feColorMatrix in="SourceAlpha" type="matrix" values="0 0 0 0 0 0 0 0 0 0 0 0 0 0 0 0 0 0 127 0" result="hardAlpha"/>
<feOffset/>
<feColorMatrix type="matrix" values="0 0 0 0 0 0 0 0 0 0 0 0 0 0 0 0 0 0 0.1 0"/>
<feBlend mode="normal" in2="BackgroundImageFix" result="effect1_dropShadow_102_3040"/>
<feColorMatrix in="SourceAlpha" type="matrix" values="0 0 0 0 0 0 0 0 0 0 0 0 0 0 0 0 0 0 127 0" result="hardAlpha"/>
<feOffset dy="100"/>
<feGaussianBlur stdDeviation="110"/>
<feColorMatrix type="matrix" values="0 0 0 0 0 0 0 0 0 0 0 0 0 0 0 0 0 0 0.1 0"/>
<feBlend mode="normal" in2="effect1_dropShadow_102_3040" result="effect2_dropShadow_102_3040"/>
<feColorMatrix in="SourceAlpha" type="matrix" values="0 0 0 0 0 0 0 0 0 0 0 0 0 0 0 0 0 0 127 0" result="hardAlpha"/>
<feOffset dy="399"/>
<feGaussianBlur stdDeviation="199.5"/>
<feColorMatrix type="matrix" values="0 0 0 0 0 0 0 0 0 0 0 0 0 0 0 0 0 0 0.09 0"/>
<feBlend mode="normal" in2="effect2_dropShadow_102_3040" result="effect3_dropShadow_102_3040"/>
<feColorMatrix in="SourceAlpha" type="matrix" values="0 0 0 0 0 0 0 0 0 0 0 0 0 0 0 0 0 0 127 0" result="hardAlpha"/>
<feOffset dy="898"/>
<feGaussianBlur stdDeviation="269.5"/>
<feColorMatrix type="matrix" values="0 0 0 0 0 0 0 0 0 0 0 0 0 0 0 0 0 0 0.05 0"/>
<feBlend mode="normal" in2="effect3_dropShadow_102_3040" result="effect4_dropShadow_102_3040"/>
<feColorMatrix in="SourceAlpha" type="matrix" values="0 0 0 0 0 0 0 0 0 0 0 0 0 0 0 0 0 0 127 0" result="hardAlpha"/>
<feOffset dy="1597"/>
<feGaussianBlur stdDeviation="319.5"/>
<feColorMatrix type="matrix" values="0 0 0 0 0 0 0 0 0 0 0 0 0 0 0 0 0 0 0.01 0"/>
<feBlend mode="normal" in2="effect4_dropShadow_102_3040" result="effect5_dropShadow_102_3040"/>
<feBlend mode="normal" in="SourceGraphic" in2="effect5_dropShadow_102_3040" result="shape"/>
</filter>
<linearGradient id="paint0_linear_102_3040" x1="2428.61" y1="1047.38" x2="2428.61" y2="1484.87" gradientUnits="userSpaceOnUse">
<stop stop-color="#58595A"/>
<stop offset="0.02" stop-color="#E0E1E3"/>
<stop offset="0.04" stop-color="#A7A8A9"/>
<stop offset="0.08" stop-color="#2B1D2A"/>
<stop offset="0.11" stop-color="#8C8C8C"/>
<stop offset="0.9" stop-color="#696969"/>
<stop offset="0.94" stop-color="#2B1D2A"/>
<stop offset="0.96" stop-color="#A7A8A9"/>
<stop offset="0.98" stop-color="#8C8C8C"/>
<stop offset="1" stop-color="#A7A8A9"/>
</linearGradient>
<linearGradient id="paint1_linear_102_3040" x1="2436.38" y1="1047.46" x2="2436.38" y2="1484.87" gradientUnits="userSpaceOnUse">
<stop stop-color="#676067"/>
<stop offset="0.06" stop-color="#707070"/>
<stop offset="0.19" stop-color="#8A8A8A"/>
<stop offset="0.81" stop-color="#8A8A8A"/>
<stop offset="0.92" stop-color="#707070"/>
<stop offset="1" stop-color="#676067"/>
</linearGradient>
<linearGradient id="paint2_linear_102_3040" x1="-6770.03" y1="1303.98" x2="-6770.03" y2="1581.11" gradientUnits="userSpaceOnUse">
<stop stop-color="#58595A"/>
<stop offset="0.02" stop-color="#E0E1E3"/>
<stop offset="0.04" stop-color="#A7A8A9"/>
<stop offset="0.08" stop-color="#2D1E2C"/>
<stop offset="0.11" stop-color="#8C8C8C"/>
<stop offset="0.9" stop-color="#696969"/>
<stop offset="0.94" stop-color="#2D1E2C"/>
<stop offset="0.96" stop-color="#A7A8A9"/>
<stop offset="0.98" stop-color="#8C8C8C"/>
<stop offset="1" stop-color="#A7A8A9"/>
</linearGradient>
<linearGradient id="paint3_linear_102_3040" x1="640.521" y1="1304.06" x2="640.521" y2="1581.11" gradientUnits="userSpaceOnUse">
<stop stop-color="#676067"/>
<stop offset="0.06" stop-color="#707070"/>
<stop offset="0.19" stop-color="#8A8A8A"/>
<stop offset="0.81" stop-color="#8A8A8A"/>
<stop offset="0.92" stop-color="#707070"/>
<stop offset="1" stop-color="#676067"/>
</linearGradient>
<linearGradient id="paint4_linear_102_3040" x1="639" y1="1581.19" x2="647.449" y2="1304.06" gradientUnits="userSpaceOnUse">
<stop stop-color="#58595A"/>
<stop offset="0.05" stop-color="#2D1E2C"/>
<stop offset="0.52" stop-color="#A7A8A9"/>
<stop offset="0.96" stop-color="#2D1E2C"/>
<stop offset="1" stop-color="#A7A8A9"/>
</linearGradient>
<linearGradient id="paint5_linear_102_3040" x1="644.914" y1="955.28" x2="644.914" y2="1232.41" gradientUnits="userSpaceOnUse">
<stop stop-color="#58595A"/>
<stop offset="0.02" stop-color="#E0E1E3"/>
<stop offset="0.04" stop-color="#A7A8A9"/>
<stop offset="0.08" stop-color="#2D1E2C"/>
<stop offset="0.11" stop-color="#8C8C8C"/>
<stop offset="0.9" stop-color="#696969"/>
<stop offset="0.94" stop-color="#2D1E2C"/>
<stop offset="0.96" stop-color="#A7A8A9"/>
<stop offset="0.98" stop-color="#8C8C8C"/>
<stop offset="1" stop-color="#A7A8A9"/>
</linearGradient>
<linearGradient id="paint6_linear_102_3040" x1="640.521" y1="955.365" x2="640.521" y2="1232.41" gradientUnits="userSpaceOnUse">
<stop stop-color="#676067"/>
<stop offset="0.06" stop-color="#707070"/>
<stop offset="0.19" stop-color="#8A8A8A"/>
<stop offset="0.81" stop-color="#8A8A8A"/>
<stop offset="0.92" stop-color="#707070"/>
<stop offset="1" stop-color="#676067"/>
</linearGradient>
<linearGradient id="paint7_linear_102_3040" x1="650.997" y1="1232.58" x2="650.997" y2="955.365" gradientUnits="userSpaceOnUse">
<stop stop-color="#58595A"/>
<stop offset="0.05" stop-color="#2D1E2C"/>
<stop offset="0.52" stop-color="#A7A8A9"/>
<stop offset="0.96" stop-color="#2D1E2C"/>
<stop offset="1" stop-color="#A7A8A9"/>
</linearGradient>
<linearGradient id="paint8_linear_102_3040" x1="-6770.03" y1="693.442" x2="-6770.03" y2="835.725" gradientUnits="userSpaceOnUse">
<stop stop-color="#58595A"/>
<stop offset="0.02" stop-color="#E0E1E3"/>
<stop offset="0.04" stop-color="#A7A8A9"/>
<stop offset="0.08" stop-color="#2D1E2C"/>
<stop offset="0.11" stop-color="#8C8C8C"/>
<stop offset="0.9" stop-color="#696969"/>
<stop offset="0.94" stop-color="#2D1E2C"/>
<stop offset="0.96" stop-color="#A7A8A9"/>
<stop offset="0.98" stop-color="#8C8C8C"/>
<stop offset="1" stop-color="#A7A8A9"/>
</linearGradient>
<linearGradient id="paint9_linear_102_3040" x1="640.521" y1="693.526" x2="640.521" y2="835.725" gradientUnits="userSpaceOnUse">
<stop stop-color="#676067"/>
<stop offset="0.06" stop-color="#707070"/>
<stop offset="0.19" stop-color="#8A8A8A"/>
<stop offset="0.81" stop-color="#8A8A8A"/>
<stop offset="0.92" stop-color="#707070"/>
<stop offset="1" stop-color="#676067"/>
</linearGradient>
<linearGradient id="paint10_linear_102_3040" x1="639" y1="835.81" x2="650.997" y2="693.526" gradientUnits="userSpaceOnUse">
<stop stop-color="#58595A"/>
<stop offset="0.05" stop-color="#2D1E2C"/>
<stop offset="0.52" stop-color="#A7A8A9"/>
<stop offset="0.96" stop-color="#2D1E2C"/>
<stop offset="1" stop-color="#A7A8A9"/>
</linearGradient>
<linearGradient id="paint11_linear_102_3040" x1="1656.53" y1="339.931" x2="1656.53" y2="290.419" gradientUnits="userSpaceOnUse">
<stop stop-color="#666666"/>
<stop offset="1" stop-color="#010104"/>
</linearGradient>
<linearGradient id="paint12_linear_102_3040" x1="1656.61" y1="302.924" x2="1656.61" y2="331.228" gradientUnits="userSpaceOnUse">
<stop stop-color="#0B131C"/>
<stop offset="1" stop-color="#354039"/>
</linearGradient>
<linearGradient id="paint13_linear_102_3040" x1="1665.4" y1="325.229" x2="1647.66" y2="307.486" gradientUnits="userSpaceOnUse">
<stop stop-color="#231F20"/>
<stop offset="0.08" stop-color="#212226"/>
<stop offset="0.2" stop-color="#1F2C37"/>
<stop offset="0.33" stop-color="#1A3C53"/>
<stop offset="0.47" stop-color="#13537B"/>
<stop offset="0.62" stop-color="#0A70AE"/>
<stop offset="0.78" stop-color="#0095EE"/>
<stop offset="0.8" stop-color="#0387D6"/>
<stop offset="0.84" stop-color="#0D689F"/>
<stop offset="0.88" stop-color="#154D71"/>
<stop offset="0.91" stop-color="#1B394E"/>
<stop offset="0.95" stop-color="#1F2A34"/>
<stop offset="0.98" stop-color="#222225"/>
<stop offset="1" stop-color="#231F20"/>
</linearGradient>
<radialGradient id="paint14_radial_102_3040" cx="0" cy="0" r="1" gradientUnits="userSpaceOnUse" gradientTransform="translate(1656.53 316.358) scale(12.5892 12.5892)">
<stop stop-color="#231F20"/>
<stop offset="0.2" stop-color="#165068"/>
<stop offset="0.38" stop-color="#0C78A1"/>
<stop offset="0.54" stop-color="#0594CB"/>
<stop offset="0.66" stop-color="#01A6E4"/>
<stop offset="0.73" stop-color="#00ADEE"/>
<stop offset="0.76" stop-color="#01A5E3"/>
<stop offset="0.81" stop-color="#0693C8"/>
<stop offset="0.87" stop-color="#0D749B"/>
<stop offset="0.94" stop-color="#184A5E"/>
<stop offset="1" stop-color="#231F20"/>
</radialGradient>
<radialGradient id="paint15_radial_102_3040" cx="0" cy="0" r="1" gradientUnits="userSpaceOnUse" gradientTransform="translate(1663.45 322.948) scale(4.47802 4.47803)">
<stop stop-color="#CCCCCC"/>
<stop offset="0.02" stop-color="#C4C4C4"/>
<stop offset="0.22" stop-color="#898989"/>
<stop offset="0.41" stop-color="#585858"/>
<stop offset="0.59" stop-color="#313131"/>
<stop offset="0.75" stop-color="#161616"/>
<stop offset="0.89" stop-color="#050505"/>
<stop offset="1"/>
</radialGradient>
</defs>
</svg>
