<svg width="7413" height="269" viewBox="0 0 7413 269" fill="none" xmlns="http://www.w3.org/2000/svg">
<path d="M54.3302 185.221H51.9985V187.552H54.3302V185.221ZM106.562 185.221H108.894V182.889H106.562V185.221ZM106.562 216V218.332H108.894V216H106.562ZM14.457 216H12.1252V218.332H14.457V216ZM14.457 52.3097V49.978H12.1252V52.3097H14.457ZM54.3302 52.3097H56.662V49.978H54.3302V52.3097ZM54.3302 187.552H106.562V182.889H54.3302V187.552ZM104.23 185.221V216H108.894V185.221H104.23ZM106.562 213.668H14.457V218.332H106.562V213.668ZM16.7887 216V52.3097H12.1252V216H16.7887ZM14.457 54.6415H54.3302V49.978H14.457V54.6415ZM51.9985 52.3097V185.221H56.662V52.3097H51.9985ZM164.754 52.3097H167.086V49.978H164.754V52.3097ZM171.983 172.862L170.26 174.433L170.26 174.433L171.983 172.862ZM214.654 172.862L216.352 174.46L216.352 174.46L214.654 172.862ZM222.116 52.3097V49.978H219.784V52.3097H222.116ZM261.989 52.3097H264.321V49.978H261.989V52.3097ZM252.662 187.086L254.648 188.308L254.648 188.308L252.662 187.086ZM227.479 209.937L226.461 207.84L226.448 207.846L227.479 209.937ZM157.759 210.171L156.703 212.25L156.722 212.259L156.742 212.269L157.759 210.171ZM133.742 187.319L131.721 188.483L131.725 188.489L131.729 188.496L133.742 187.319ZM124.881 52.3097V49.978H122.549V52.3097H124.881ZM162.422 52.3097V150.244H167.086V52.3097H162.422ZM162.422 150.244C162.422 160.402 164.924 168.581 170.26 174.433L173.706 171.291C169.403 166.572 167.086 159.673 167.086 150.244H162.422ZM170.26 174.433C175.645 180.34 183.43 183.122 193.202 183.122V178.459C184.32 178.459 177.958 175.956 173.706 171.291L170.26 174.433ZM193.202 183.122C202.978 183.122 210.82 180.338 216.352 174.46L212.956 171.264C208.539 175.957 202.08 178.459 193.202 178.459V183.122ZM216.352 174.46C221.858 168.61 224.447 160.42 224.447 150.244H219.784C219.784 159.655 217.398 166.544 212.956 171.264L216.352 174.46ZM224.447 150.244V52.3097H219.784V150.244H224.447ZM222.116 54.6415H261.989V49.978H222.116V54.6415ZM259.657 52.3097V150.011H264.321V52.3097H259.657ZM259.657 150.011C259.657 164.292 256.621 176.204 250.676 185.864L254.648 188.308C261.139 177.76 264.321 164.955 264.321 150.011H259.657ZM250.676 185.864C244.688 195.594 236.628 202.906 226.461 207.84L228.497 212.035C239.471 206.709 248.199 198.787 254.648 188.308L250.676 185.864ZM226.448 207.846C216.388 212.801 205.088 215.3 192.502 215.3V219.964C205.722 219.964 217.739 217.334 228.509 212.029L226.448 207.846ZM192.502 215.3C179.906 215.3 168.679 212.874 158.776 208.072L156.742 212.269C167.358 217.416 179.294 219.964 192.502 219.964V215.3ZM158.814 208.091C149.123 203.171 141.444 195.874 135.755 186.142L131.729 188.496C137.854 198.973 146.186 206.91 156.703 212.25L158.814 208.091ZM135.762 186.156C130.102 176.324 127.213 164.31 127.213 150.011H122.549C122.549 164.937 125.567 177.795 131.721 188.483L135.762 186.156ZM127.213 150.011V52.3097H122.549V150.011H127.213ZM124.881 54.6415H164.754V49.978H124.881V54.6415ZM293.719 90.7839L295.758 91.9164L295.763 91.9058L293.719 90.7839ZM322.866 61.1705L324.01 63.2028L324.018 63.1981L322.866 61.1705ZM415.438 65.834L416.827 63.961L416.827 63.961L415.438 65.834ZM443.186 107.806V110.138H446.21L445.441 107.212L443.186 107.806ZM399.348 107.806L397.244 108.81L397.878 110.138H399.348V107.806ZM385.358 92.183L384.15 94.1778L384.162 94.1847L384.173 94.1915L385.358 92.183ZM335.225 99.6447L336.966 101.196L336.966 101.196L335.225 99.6447ZM335.225 168.199L333.484 169.75L335.225 168.199ZM385.358 175.66L384.173 173.652L384.162 173.659L384.15 173.666L385.358 175.66ZM399.348 160.038V157.706H397.878L397.244 159.033L399.348 160.038ZM443.186 160.038L445.441 160.631L446.21 157.706H443.186V160.038ZM415.438 202.009L416.813 203.892L416.82 203.887L416.827 203.882L415.438 202.009ZM322.866 206.673L321.704 208.694L321.719 208.703L321.734 208.711L322.866 206.673ZM293.719 177.059L295.758 175.927L295.758 175.927L293.719 177.059ZM285.558 133.922C285.558 118.102 288.977 104.121 295.758 91.9164L291.681 89.6515C284.471 102.63 280.895 117.408 280.895 133.922H285.558ZM295.763 91.9058C302.553 79.5327 311.96 69.9804 324.01 63.2028L321.723 59.1381C308.9 66.3512 298.876 76.5411 291.675 89.6621L295.763 91.9058ZM324.018 63.1981C336.226 56.2653 350.046 52.7761 365.538 52.7761V48.1125C349.317 48.1125 334.69 51.7741 321.715 59.1428L324.018 63.1981ZM365.538 52.7761C384.536 52.7761 400.666 57.7827 414.049 67.707L416.827 63.961C402.539 53.3657 385.402 48.1125 365.538 48.1125V52.7761ZM414.049 67.707C427.43 77.6301 436.393 91.1552 440.931 108.399L445.441 107.212C440.652 89.0136 431.116 74.5575 416.827 63.961L414.049 67.707ZM443.186 105.474H399.348V110.138H443.186V105.474ZM401.453 106.802C398.005 99.5766 393.036 94.0039 386.542 90.1745L384.173 94.1915C389.805 97.5129 394.163 102.355 397.244 108.81L401.453 106.802ZM386.565 90.1882C380.257 86.3701 373.069 84.4882 365.071 84.4882V89.1517C372.308 89.1517 378.644 90.8452 384.15 94.1778L386.565 90.1882ZM365.071 84.4882C352.18 84.4882 341.578 89.0079 333.484 98.0936L336.966 101.196C344.106 93.1818 353.402 89.1517 365.071 89.1517V84.4882ZM333.484 98.0936C325.398 107.169 321.467 119.196 321.467 133.922H326.131C326.131 120.044 329.817 109.22 336.966 101.196L333.484 98.0936ZM321.467 133.922C321.467 148.647 325.398 160.674 333.484 169.75L336.966 166.648C329.817 158.624 326.131 147.799 326.131 133.922H321.467ZM333.484 169.75C341.578 178.835 352.18 183.355 365.071 183.355V178.692C353.402 178.692 344.106 174.662 336.966 166.648L333.484 169.75ZM365.071 183.355C373.069 183.355 380.257 181.473 386.565 177.655L384.15 173.666C378.644 176.998 372.308 178.692 365.071 178.692V183.355ZM386.542 177.669C393.036 173.839 398.005 168.267 401.453 161.042L397.244 159.033C394.163 165.488 389.805 170.331 384.173 173.652L386.542 177.669ZM399.348 162.369H443.186V157.706H399.348V162.369ZM440.931 159.444C436.393 176.688 427.43 190.213 414.049 200.136L416.827 203.882C431.116 193.286 440.652 178.83 445.441 160.631L440.931 159.444ZM414.062 200.126C400.679 209.901 384.544 214.834 365.538 214.834V219.498C385.394 219.498 402.526 214.327 416.813 203.892L414.062 200.126ZM365.538 214.834C350.037 214.834 336.21 211.419 323.999 204.635L321.734 208.711C334.706 215.918 349.326 219.498 365.538 219.498V214.834ZM324.029 204.651C311.962 197.713 302.548 188.15 295.758 175.927L291.681 178.192C298.881 191.152 308.899 201.331 321.704 208.694L324.029 204.651ZM295.758 175.927C288.977 163.723 285.558 149.742 285.558 133.922H280.895C280.895 150.436 284.471 165.213 291.681 178.192L295.758 175.927ZM569.502 187.086L571.711 186.338L571.174 184.754H569.502V187.086ZM508.41 187.086V184.754H506.738L506.201 186.338L508.41 187.086ZM498.616 216V218.332H500.288L500.825 216.748L498.616 216ZM456.878 216L454.685 215.207L453.554 218.332H456.878V216ZM516.105 52.3097V49.978H514.469L513.912 51.5164L516.105 52.3097ZM562.274 52.3097L564.466 51.5164L563.91 49.978H562.274V52.3097ZM621.501 216V218.332H624.824L623.693 215.207L621.501 216ZM579.295 216L577.087 216.748L577.623 218.332H579.295V216ZM559.242 156.307V158.638H562.493L561.451 155.559L559.242 156.307ZM538.956 96.3802L541.165 95.6325L538.943 89.0704L536.745 95.6402L538.956 96.3802ZM518.903 156.307L516.691 155.567L515.664 158.638H518.903V156.307ZM569.502 184.754H508.41V189.418H569.502V184.754ZM506.201 186.338L496.408 215.252L500.825 216.748L510.618 187.834L506.201 186.338ZM498.616 213.668H456.878V218.332H498.616V213.668ZM459.07 216.793L518.297 53.1031L513.912 51.5164L454.685 215.207L459.07 216.793ZM516.105 54.6415H562.274V49.978H516.105V54.6415ZM560.081 53.1031L619.308 216.793L623.693 215.207L564.466 51.5164L560.081 53.1031ZM621.501 213.668H579.295V218.332H621.501V213.668ZM581.504 215.252L571.711 186.338L567.294 187.834L577.087 216.748L581.504 215.252ZM561.451 155.559L541.165 95.6325L536.747 97.1279L557.034 157.054L561.451 155.559ZM536.745 95.6402L516.691 155.567L521.114 157.047L541.167 97.1201L536.745 95.6402ZM518.903 158.638H559.242V153.975H518.903V158.638ZM666.575 211.803L665.69 213.96L665.69 213.96L666.575 211.803ZM643.723 194.548L641.844 195.928L641.853 195.941L641.863 195.953L643.723 194.548ZM634.863 167.033V164.701H632.462L632.532 167.1L634.863 167.033ZM677.301 167.033L679.62 166.795L679.406 164.701H677.301V167.033ZM683.597 181.023L682.024 182.745L682.045 182.764L682.067 182.783L683.597 181.023ZM711.578 181.723L713.004 183.568L713.029 183.548L713.054 183.528L711.578 181.723ZM712.511 160.271L710.862 161.92L710.885 161.943L710.91 161.966L712.511 160.271ZM702.484 153.742L701.545 155.876L701.56 155.883L701.575 155.889L702.484 153.742ZM685.695 147.912L685.007 150.14L685.018 150.144L685.03 150.147L685.695 147.912ZM659.813 138.119L658.789 140.214L659.813 138.119ZM642.557 123.662L644.417 122.256L644.417 122.256L642.557 123.662ZM651.885 63.0359L653.313 64.8793L653.321 64.873L653.329 64.8667L651.885 63.0359ZM738.626 63.0359L737.182 64.8667L737.19 64.873L737.198 64.8793L738.626 63.0359ZM756.348 98.9451V101.277H758.8L758.677 98.8275L756.348 98.9451ZM713.21 98.9451L710.882 99.0821L711.011 101.277H713.21V98.9451ZM707.381 86.5868L705.851 88.3463L705.873 88.3657L705.896 88.3845L707.381 86.5868ZM681.964 85.8872L683.466 87.6708L683.493 87.6483L683.519 87.625L681.964 85.8872ZM684.996 109.205L686.186 107.2L686.186 107.2L684.996 109.205ZM708.313 118.765L709.061 116.556L709.046 116.551L709.031 116.547L708.313 118.765ZM733.963 129.025L732.92 131.111L732.93 131.115L732.94 131.12L733.963 129.025ZM751.218 143.249L749.375 144.677L749.375 144.677L751.218 143.249ZM751.218 192.682L749.247 191.436L749.238 191.45L749.229 191.465L751.218 192.682ZM730.698 210.87L729.656 208.785L729.656 208.785L730.698 210.87ZM698.753 215.3C687.036 215.3 676.618 213.399 667.459 209.645L665.69 213.96C675.497 217.979 686.53 219.964 698.753 219.964V215.3ZM667.459 209.645C658.334 205.905 651.065 200.401 645.584 193.143L641.863 195.953C647.885 203.928 655.85 209.928 665.69 213.96L667.459 209.645ZM645.603 193.167C640.324 185.982 637.493 177.284 637.193 166.965L632.532 167.1C632.855 178.234 635.931 187.879 641.844 195.928L645.603 193.167ZM634.863 169.365H677.301V164.701H634.863V169.365ZM674.981 167.271C675.646 173.75 677.925 179.002 682.024 182.745L685.169 179.301C682.118 176.515 680.2 172.441 679.62 166.795L674.981 167.271ZM682.067 182.783C686.152 186.336 691.399 188.019 697.587 188.019V183.355C692.272 183.355 688.192 181.929 685.127 179.264L682.067 182.783ZM697.587 188.019C703.823 188.019 709.049 186.624 713.004 183.568L710.152 179.878C707.267 182.107 703.165 183.355 697.587 183.355V188.019ZM713.054 183.528C717.069 180.243 719.04 175.744 719.04 170.297H714.376C714.376 174.489 712.926 177.607 710.101 179.918L713.054 183.528ZM719.04 170.297C719.04 165.65 717.402 161.683 714.112 158.575L710.91 161.966C713.216 164.144 714.376 166.861 714.376 170.297H719.04ZM714.159 158.622C711.271 155.733 707.663 153.401 703.393 151.594L701.575 155.889C705.388 157.502 708.465 159.523 710.862 161.92L714.159 158.622ZM703.423 151.607C699.404 149.839 693.7 147.864 686.361 145.678L685.03 150.147C692.303 152.314 697.791 154.224 701.545 155.876L703.423 151.607ZM686.383 145.684C675.878 142.44 667.374 139.217 660.836 136.024L658.789 140.214C665.62 143.55 674.371 146.856 685.007 150.14L686.383 145.684ZM660.836 136.024C654.505 132.932 649.032 128.359 644.417 122.256L640.698 125.068C645.721 131.712 651.752 136.777 658.789 140.214L660.836 136.024ZM644.417 122.256C639.982 116.389 637.661 108.609 637.661 98.712H632.997C632.997 109.334 635.495 118.188 640.698 125.068L644.417 122.256ZM637.661 98.712C637.661 84.1233 642.903 72.9431 653.313 64.8793L650.457 61.1925C638.792 70.2283 632.997 82.8322 632.997 98.712H637.661ZM653.329 64.8667C663.857 56.5627 677.686 52.3097 695.022 52.3097V47.6462C676.916 47.6462 661.986 52.0985 650.441 61.2051L653.329 64.8667ZM695.022 52.3097C712.681 52.3097 726.661 56.568 737.182 64.8667L740.07 61.2051C728.518 52.0932 713.429 47.6462 695.022 47.6462V52.3097ZM737.198 64.8793C747.638 72.9664 753.272 84.2729 754.019 99.0628L758.677 98.8275C757.869 82.838 751.689 70.205 740.054 61.1925L737.198 64.8793ZM756.348 96.6134H713.21V101.277H756.348V96.6134ZM715.538 98.8082C715.195 92.977 713.013 88.2153 708.866 84.7891L705.896 88.3845C708.899 90.8654 710.604 94.3426 710.882 99.0821L715.538 98.8082ZM708.911 84.8272C704.837 81.2844 699.675 79.5914 693.623 79.5914V84.255C698.764 84.255 702.774 85.6711 705.851 88.3463L708.911 84.8272ZM693.623 79.5914C688.36 79.5914 683.878 81.0457 680.41 84.1495L683.519 87.625C685.957 85.4434 689.248 84.255 693.623 84.255V79.5914ZM680.462 84.1036C676.856 87.1409 675.202 91.5252 675.202 96.8465H679.866C679.866 92.5299 681.166 89.608 683.466 87.6708L680.462 84.1036ZM675.202 96.8465C675.202 103.045 678.204 107.884 683.805 111.21L686.186 107.2C681.838 104.618 679.866 101.219 679.866 96.8465H675.202ZM683.805 111.21C689.009 114.299 696.981 117.55 707.596 120.984L709.031 116.547C698.504 113.141 690.932 110.018 686.186 107.2L683.805 111.21ZM707.566 120.974C718.083 124.531 726.523 127.912 732.92 131.111L735.006 126.939C728.345 123.609 719.686 120.15 709.061 116.556L707.566 120.974ZM732.94 131.12C739.285 134.219 744.762 138.725 749.375 144.677L753.061 141.82C748.036 135.337 742.01 130.36 734.986 126.93L732.94 131.12ZM749.375 144.677C753.806 150.395 756.115 157.86 756.115 167.266H760.778C760.778 157.085 758.268 148.539 753.061 141.82L749.375 144.677ZM756.115 167.266C756.115 176.168 753.822 184.205 749.247 191.436L753.189 193.929C758.252 185.925 760.778 177.018 760.778 167.266H756.115ZM749.229 191.465C744.822 198.663 738.333 204.446 729.656 208.785L731.741 212.956C741.096 208.278 748.287 201.935 753.207 193.9L749.229 191.465ZM729.656 208.785C721.026 213.099 710.75 215.3 698.753 215.3V219.964C711.318 219.964 722.338 217.657 731.741 212.956L729.656 208.785Z" fill="white"/>
<path d="M1065.83 52.3097V216H1025.96V117.832L989.351 216H957.172L920.33 117.599V216H880.457V52.3097H927.559L973.495 165.634L1018.96 52.3097H1065.83ZM1134.38 84.255V117.366H1187.78V148.145H1134.38V184.055H1194.77V216H1094.51V52.3097H1194.77V84.255H1134.38ZM1279.89 217.632C1267.92 217.632 1257.19 215.689 1247.71 211.803C1238.22 207.917 1230.61 202.165 1224.86 194.548C1219.26 186.931 1216.31 177.759 1216 167.033H1258.43C1259.06 173.095 1261.15 177.759 1264.73 181.023C1268.3 184.132 1272.97 185.687 1278.72 185.687C1284.63 185.687 1289.29 184.366 1292.71 181.723C1296.13 178.925 1297.84 175.116 1297.84 170.297C1297.84 166.256 1296.44 162.913 1293.64 160.271C1291 157.628 1287.66 155.452 1283.62 153.742C1279.73 152.032 1274.13 150.089 1266.83 147.912C1256.26 144.648 1247.63 141.383 1240.94 138.119C1234.26 134.854 1228.51 130.035 1223.69 123.662C1218.87 117.288 1216.46 108.972 1216.46 98.712C1216.46 83.4777 1221.98 71.5857 1233.02 63.0359C1244.05 54.3306 1258.43 49.978 1276.15 49.978C1294.19 49.978 1308.72 54.3306 1319.76 63.0359C1330.8 71.5857 1336.7 83.5555 1337.48 98.9451H1294.34C1294.03 93.6598 1292.09 89.5403 1288.51 86.5868C1284.94 83.4777 1280.35 81.9232 1274.76 81.9232C1269.94 81.9232 1266.05 83.2446 1263.1 85.8872C1260.14 88.3744 1258.67 92.0275 1258.67 96.8465C1258.67 102.132 1261.15 106.251 1266.13 109.205C1271.1 112.159 1278.88 115.345 1289.45 118.765C1300.02 122.341 1308.57 125.76 1315.1 129.025C1321.78 132.289 1327.53 137.031 1332.35 143.249C1337.17 149.467 1339.58 157.473 1339.58 167.266C1339.58 176.593 1337.17 185.065 1332.35 192.682C1327.69 200.299 1320.85 206.362 1311.83 210.87C1302.81 215.378 1292.17 217.632 1279.89 217.632ZM1403.99 52.3097V216H1364.12V52.3097H1403.99ZM1534.78 187.086H1473.69L1463.9 216H1422.16L1481.39 52.3097H1527.56L1586.78 216H1544.58L1534.78 187.086ZM1524.52 156.307L1504.24 96.3802L1484.18 156.307H1524.52ZM1751.24 216H1711.37L1644.68 115.034V216H1604.81V52.3097H1644.68L1711.37 153.742V52.3097H1751.24V216ZM1857.56 217.632C1842.17 217.632 1828.03 214.057 1815.12 206.906C1802.38 199.755 1792.19 189.806 1784.58 177.059C1777.12 164.157 1773.38 149.7 1773.38 133.689C1773.38 117.677 1777.12 103.298 1784.58 90.5508C1792.19 77.8038 1802.38 67.8549 1815.12 60.7041C1828.03 53.5534 1842.17 49.978 1857.56 49.978C1872.95 49.978 1887.02 53.5534 1899.77 60.7041C1912.67 67.8549 1922.77 77.8038 1930.08 90.5508C1937.54 103.298 1941.27 117.677 1941.27 133.689C1941.27 149.7 1937.54 164.157 1930.08 177.059C1922.62 189.806 1912.51 199.755 1899.77 206.906C1887.02 214.057 1872.95 217.632 1857.56 217.632ZM1857.56 181.257C1870.62 181.257 1881.03 176.904 1888.81 168.199C1896.74 159.493 1900.7 147.99 1900.7 133.689C1900.7 119.232 1896.74 107.728 1888.81 99.1783C1881.03 90.473 1870.62 86.1204 1857.56 86.1204C1844.35 86.1204 1833.78 90.3953 1825.85 98.9451C1818.08 107.495 1814.19 119.076 1814.19 133.689C1814.19 148.145 1818.08 159.727 1825.85 168.432C1833.78 176.982 1844.35 181.257 1857.56 181.257Z" fill="#D91D5A"/>
<path d="M2086.33 83.7794H2084V81.4476H2086.33V83.7794ZM2138.56 83.7794H2140.89V86.1111H2138.56V83.7794ZM2138.56 53V50.6682H2140.89V53H2138.56ZM2046.46 53H2044.13V50.6682H2046.46V53ZM2046.46 216.69V219.022H2044.13V216.69H2046.46ZM2086.33 216.69H2088.66V219.022H2086.33V216.69ZM2086.33 81.4476H2138.56V86.1111H2086.33V81.4476ZM2136.23 83.7794V53H2140.89V83.7794H2136.23ZM2138.56 55.3318H2046.46V50.6682H2138.56V55.3318ZM2048.79 53V216.69H2044.13V53H2048.79ZM2046.46 214.358H2086.33V219.022H2046.46V214.358ZM2084 216.69V83.7794H2088.66V216.69H2084ZM2196.75 216.69H2199.09V219.022H2196.75V216.69ZM2203.98 96.1377L2202.26 94.5667L2202.26 94.5667L2203.98 96.1377ZM2246.65 96.1377L2248.35 94.5396L2248.35 94.5396L2246.65 96.1377ZM2254.12 216.69V219.022H2251.78V216.69H2254.12ZM2293.99 216.69H2296.32V219.022H2293.99V216.69ZM2284.66 81.9139L2286.65 80.6919L2286.65 80.6919L2284.66 81.9139ZM2259.48 59.0626L2258.46 61.1604L2258.45 61.1544L2259.48 59.0626ZM2189.76 58.8294L2188.7 56.7503L2188.72 56.7406L2188.74 56.7313L2189.76 58.8294ZM2165.74 81.6808L2163.72 80.5173L2163.72 80.5106L2163.73 80.5039L2165.74 81.6808ZM2156.88 216.69V219.022H2154.55V216.69H2156.88ZM2194.42 216.69V118.756H2199.09V216.69H2194.42ZM2194.42 118.756C2194.42 108.598 2196.92 100.419 2202.26 94.5667L2205.71 97.7088C2201.4 102.428 2199.09 109.327 2199.09 118.756H2194.42ZM2202.26 94.5667C2207.64 88.6603 2215.43 85.878 2225.2 85.878V90.5415C2216.32 90.5415 2209.96 93.0445 2205.71 97.7088L2202.26 94.5667ZM2225.2 85.878C2234.98 85.878 2242.82 88.6616 2248.35 94.5396L2244.96 97.7359C2240.54 93.0432 2234.08 90.5415 2225.2 90.5415V85.878ZM2248.35 94.5396C2253.86 100.39 2256.45 108.58 2256.45 118.756H2251.78C2251.78 109.345 2249.4 102.456 2244.96 97.7359L2248.35 94.5396ZM2256.45 118.756V216.69H2251.78V118.756H2256.45ZM2254.12 214.358H2293.99V219.022H2254.12V214.358ZM2291.66 216.69V118.989H2296.32V216.69H2291.66ZM2291.66 118.989C2291.66 104.708 2288.62 92.7962 2282.68 83.136L2286.65 80.6919C2293.14 91.2403 2296.32 104.045 2296.32 118.989H2291.66ZM2282.68 83.136C2276.69 73.4059 2268.63 66.0945 2258.46 61.1604L2260.5 56.9648C2271.47 62.2905 2280.2 70.2134 2286.65 80.6919L2282.68 83.136ZM2258.45 61.1544C2248.39 56.1992 2237.09 53.6995 2224.5 53.6995V49.036C2237.72 49.036 2249.74 51.6662 2260.51 56.9708L2258.45 61.1544ZM2224.5 53.6995C2211.91 53.6995 2200.68 56.126 2190.78 60.9276L2188.74 56.7313C2199.36 51.584 2211.29 49.036 2224.5 49.036V53.6995ZM2190.81 60.9086C2181.12 65.8289 2173.44 73.1263 2167.75 82.8576L2163.73 80.5039C2169.85 70.0266 2178.19 62.0897 2188.7 56.7503L2190.81 60.9086ZM2167.76 82.8442C2162.1 92.6761 2159.21 104.69 2159.21 118.989H2154.55C2154.55 104.063 2157.57 91.205 2163.72 80.5173L2167.76 82.8442ZM2159.21 118.989V216.69H2154.55V118.989H2159.21ZM2156.88 214.358H2196.75V219.022H2156.88V214.358ZM2325.72 178.216L2327.76 177.084L2327.76 177.094L2325.72 178.216ZM2354.87 207.83L2356.01 205.797L2356.02 205.802L2354.87 207.83ZM2447.44 203.166L2448.83 205.039L2448.83 205.039L2447.44 203.166ZM2475.19 161.194V158.862H2478.21L2477.44 161.788L2475.19 161.194ZM2431.35 161.194L2429.24 160.19L2429.88 158.862H2431.35V161.194ZM2417.36 176.817L2416.15 174.822L2416.16 174.815L2416.17 174.808L2417.36 176.817ZM2367.22 169.355L2368.97 167.804L2368.97 167.804L2367.22 169.355ZM2367.22 100.801L2365.48 99.2502L2367.22 100.801ZM2417.36 93.3396L2416.17 95.3481L2416.16 95.3414L2416.15 95.3345L2417.36 93.3396ZM2431.35 108.962V111.294H2429.88L2429.24 109.967L2431.35 108.962ZM2475.19 108.962L2477.44 108.369L2478.21 111.294H2475.19V108.962ZM2447.44 66.9906L2448.81 65.1076L2448.82 65.1126L2448.83 65.1177L2447.44 66.9906ZM2354.87 62.3271L2353.7 60.3057L2353.72 60.2971L2353.73 60.2887L2354.87 62.3271ZM2325.72 91.9406L2327.76 93.073L2327.76 93.073L2325.72 91.9406ZM2317.56 135.078C2317.56 150.898 2320.98 164.879 2327.76 177.084L2323.68 179.348C2316.47 166.37 2312.89 151.592 2312.89 135.078H2317.56ZM2327.76 177.094C2334.55 189.467 2343.96 199.02 2356.01 205.797L2353.72 209.862C2340.9 202.649 2330.88 192.459 2323.68 179.338L2327.76 177.094ZM2356.02 205.802C2368.23 212.735 2382.05 216.224 2397.54 216.224V220.887C2381.32 220.887 2366.69 217.226 2353.71 209.857L2356.02 205.802ZM2397.54 216.224C2416.54 216.224 2432.67 211.217 2446.05 201.293L2448.83 205.039C2434.54 215.634 2417.4 220.887 2397.54 220.887V216.224ZM2446.05 201.293C2459.43 191.37 2468.39 177.845 2472.93 160.601L2477.44 161.788C2472.65 179.986 2463.12 194.442 2448.83 205.039L2446.05 201.293ZM2475.19 163.526H2431.35V158.862H2475.19V163.526ZM2433.45 162.198C2430 169.423 2425.04 174.996 2418.54 178.825L2416.17 174.808C2421.81 171.487 2426.16 166.645 2429.24 160.19L2433.45 162.198ZM2418.57 178.812C2412.26 182.63 2405.07 184.512 2397.07 184.512V179.848C2404.31 179.848 2410.64 178.155 2416.15 174.822L2418.57 178.812ZM2397.07 184.512C2384.18 184.512 2373.58 179.992 2365.48 170.906L2368.97 167.804C2376.11 175.818 2385.4 179.848 2397.07 179.848V184.512ZM2365.48 170.906C2357.4 161.831 2353.47 149.804 2353.47 135.078H2358.13C2358.13 148.956 2361.82 159.78 2368.97 167.804L2365.48 170.906ZM2353.47 135.078C2353.47 120.353 2357.4 108.326 2365.48 99.2502L2368.97 102.352C2361.82 110.376 2358.13 121.201 2358.13 135.078H2353.47ZM2365.48 99.2502C2373.58 90.1645 2384.18 85.6448 2397.07 85.6448V90.3083C2385.4 90.3083 2376.11 94.3384 2368.97 102.352L2365.48 99.2502ZM2397.07 85.6448C2405.07 85.6448 2412.26 87.5267 2418.57 91.3448L2416.15 95.3345C2410.64 92.0018 2404.31 90.3083 2397.07 90.3083V85.6448ZM2418.54 91.3311C2425.04 95.1605 2430 100.733 2433.45 107.958L2429.24 109.967C2426.16 103.512 2421.81 98.6695 2416.17 95.3481L2418.54 91.3311ZM2431.35 106.631H2475.19V111.294H2431.35V106.631ZM2472.93 109.556C2468.39 92.3118 2459.43 78.7867 2446.05 68.8636L2448.83 65.1177C2463.12 75.7141 2472.65 90.1702 2477.44 108.369L2472.93 109.556ZM2446.06 68.8737C2432.68 59.0992 2416.54 54.1659 2397.54 54.1659V49.5023C2417.39 49.5023 2434.53 54.6733 2448.81 65.1076L2446.06 68.8737ZM2397.54 54.1659C2382.04 54.1659 2368.21 57.5815 2356 64.3654L2353.73 60.2887C2366.71 53.0821 2381.33 49.5023 2397.54 49.5023V54.1659ZM2356.03 64.3485C2343.96 71.2871 2334.55 80.8502 2327.76 93.073L2323.68 90.8082C2330.88 77.8478 2340.9 67.6686 2353.7 60.3057L2356.03 64.3485ZM2327.76 93.073C2320.98 105.277 2317.56 119.258 2317.56 135.078H2312.89C2312.89 118.564 2316.47 103.787 2323.68 90.8082L2327.76 93.073ZM2601.5 81.9139L2603.71 82.662L2603.17 84.2457H2601.5V81.9139ZM2540.41 81.9139V84.2457H2538.74L2538.2 82.662L2540.41 81.9139ZM2530.62 53V50.6682H2532.29L2532.82 52.252L2530.62 53ZM2488.88 53L2486.68 53.7934L2485.55 50.6682H2488.88V53ZM2548.1 216.69V219.022H2546.47L2545.91 217.484L2548.1 216.69ZM2594.27 216.69L2596.47 217.484L2595.91 219.022H2594.27V216.69ZM2653.5 53V50.6682H2656.82L2655.69 53.7934L2653.5 53ZM2611.3 53L2609.09 52.252L2609.62 50.6682H2611.3V53ZM2591.24 112.693V110.362H2594.49L2593.45 113.441L2591.24 112.693ZM2570.96 172.62L2573.16 173.367L2570.94 179.93L2568.74 173.36L2570.96 172.62ZM2550.9 112.693L2548.69 113.433L2547.66 110.362H2550.9V112.693ZM2601.5 84.2457H2540.41V79.5822H2601.5V84.2457ZM2538.2 82.662L2528.41 53.748L2532.82 52.252L2542.62 81.1659L2538.2 82.662ZM2530.62 55.3318H2488.88V50.6682H2530.62V55.3318ZM2491.07 52.2066L2550.3 215.897L2545.91 217.484L2486.68 53.7934L2491.07 52.2066ZM2548.1 214.358H2594.27V219.022H2548.1V214.358ZM2592.08 215.897L2651.31 52.2066L2655.69 53.7934L2596.47 217.484L2592.08 215.897ZM2653.5 55.3318H2611.3V50.6682H2653.5V55.3318ZM2613.5 53.748L2603.71 82.662L2599.29 81.1659L2609.09 52.252L2613.5 53.748ZM2593.45 113.441L2573.16 173.367L2568.75 171.872L2589.03 111.946L2593.45 113.441ZM2568.74 173.36L2548.69 113.433L2553.11 111.953L2573.17 171.88L2568.74 173.36ZM2550.9 110.362H2591.24V115.025H2550.9V110.362ZM2698.57 57.1972L2697.69 55.0396L2697.69 55.0396L2698.57 57.1972ZM2675.72 74.4523L2673.84 73.0717L2673.85 73.0594L2673.86 73.0472L2675.72 74.4523ZM2666.86 101.967V104.299H2664.46L2664.53 101.9L2666.86 101.967ZM2709.3 101.967L2711.62 102.205L2711.41 104.299H2709.3V101.967ZM2715.6 87.9766L2714.02 86.2546L2714.05 86.2355L2714.07 86.217L2715.6 87.9766ZM2743.58 87.277L2745 85.4319L2745.03 85.4518L2745.05 85.4723L2743.58 87.277ZM2744.51 108.729L2742.86 107.08L2742.89 107.057L2742.91 107.034L2744.51 108.729ZM2734.48 115.258L2733.54 113.124L2733.56 113.117L2733.58 113.111L2734.48 115.258ZM2717.7 121.088L2717.01 118.86L2717.02 118.856L2717.03 118.853L2717.7 121.088ZM2691.81 130.881L2690.79 128.786L2691.81 130.881ZM2674.56 145.338L2676.42 146.744L2676.42 146.744L2674.56 145.338ZM2683.88 205.964L2685.31 204.121L2685.32 204.127L2685.33 204.133L2683.88 205.964ZM2770.63 205.964L2769.18 204.133L2769.19 204.127L2769.2 204.121L2770.63 205.964ZM2788.35 170.055V167.723H2790.8L2790.68 170.172L2788.35 170.055ZM2745.21 170.055L2742.88 169.918L2743.01 167.723H2745.21V170.055ZM2739.38 182.413L2737.85 180.654L2737.87 180.634L2737.9 180.616L2739.38 182.413ZM2713.96 183.113L2715.47 181.329L2715.49 181.352L2715.52 181.375L2713.96 183.113ZM2717 159.795L2718.19 161.8L2718.19 161.8L2717 159.795ZM2740.31 150.235L2741.06 152.444L2741.05 152.449L2741.03 152.453L2740.31 150.235ZM2765.96 139.975L2764.92 137.889L2764.93 137.885L2764.94 137.88L2765.96 139.975ZM2783.22 125.751L2781.37 124.323L2781.37 124.323L2783.22 125.751ZM2783.22 76.3177L2781.25 77.5644L2781.24 77.5499L2781.23 77.5352L2783.22 76.3177ZM2762.7 58.1299L2761.66 60.2155L2761.66 60.2155L2762.7 58.1299ZM2730.75 53.6995C2719.04 53.6995 2708.62 55.6011 2699.46 59.3548L2697.69 55.0396C2707.5 51.0207 2718.53 49.036 2730.75 49.036V53.6995ZM2699.46 59.3548C2690.33 63.0945 2683.07 68.5988 2677.58 75.8574L2673.86 73.0472C2679.88 65.0715 2687.85 59.0724 2697.69 55.0396L2699.46 59.3548ZM2677.6 75.8329C2672.32 83.0181 2669.49 91.7156 2669.19 102.035L2664.53 101.9C2664.85 90.7664 2667.93 81.1207 2673.84 73.0717L2677.6 75.8329ZM2666.86 99.6354H2709.3V104.299H2666.86V99.6354ZM2706.98 101.729C2707.65 95.2497 2709.93 89.9975 2714.02 86.2546L2717.17 89.6985C2714.12 92.4846 2712.2 96.5594 2711.62 102.205L2706.98 101.729ZM2714.07 86.217C2718.15 82.6641 2723.4 80.9812 2729.59 80.9812V85.6448C2724.27 85.6448 2720.19 87.0709 2717.13 89.7361L2714.07 86.217ZM2729.59 80.9812C2735.82 80.9812 2741.05 82.3759 2745 85.4319L2742.15 89.1221C2739.27 86.8928 2735.17 85.6448 2729.59 85.6448V80.9812ZM2745.05 85.4723C2749.07 88.7571 2751.04 93.2565 2751.04 98.7027H2746.38C2746.38 94.5109 2744.93 91.3932 2742.1 89.0817L2745.05 85.4723ZM2751.04 98.7027C2751.04 103.35 2749.4 107.317 2746.11 110.425L2742.91 107.034C2745.22 104.856 2746.38 102.139 2746.38 98.7027H2751.04ZM2746.16 110.378C2743.27 113.267 2739.66 115.599 2735.39 117.406L2733.58 113.111C2737.39 111.498 2740.47 109.477 2742.86 107.08L2746.16 110.378ZM2735.42 117.393C2731.4 119.161 2725.7 121.136 2718.36 123.322L2717.03 118.853C2724.3 116.686 2729.79 114.776 2733.54 113.124L2735.42 117.393ZM2718.38 123.316C2707.88 126.56 2699.37 129.783 2692.84 132.976L2690.79 128.786C2697.62 125.45 2706.37 122.144 2717.01 118.86L2718.38 123.316ZM2692.84 132.976C2686.5 136.068 2681.03 140.641 2676.42 146.744L2672.7 143.932C2677.72 137.288 2683.75 132.223 2690.79 128.786L2692.84 132.976ZM2676.42 146.744C2671.98 152.611 2669.66 160.391 2669.66 170.288H2665C2665 159.666 2667.5 150.812 2672.7 143.932L2676.42 146.744ZM2669.66 170.288C2669.66 184.877 2674.9 196.057 2685.31 204.121L2682.46 207.807C2670.79 198.772 2665 186.168 2665 170.288H2669.66ZM2685.33 204.133C2695.86 212.437 2709.69 216.69 2727.02 216.69V221.354C2708.92 221.354 2693.99 216.901 2682.44 207.795L2685.33 204.133ZM2727.02 216.69C2744.68 216.69 2758.66 212.432 2769.18 204.133L2772.07 207.795C2760.52 216.907 2745.43 221.354 2727.02 221.354V216.69ZM2769.2 204.121C2779.64 196.034 2785.27 184.727 2786.02 169.937L2790.68 170.172C2789.87 186.162 2783.69 198.795 2772.05 207.807L2769.2 204.121ZM2788.35 172.387H2745.21V167.723H2788.35V172.387ZM2747.54 170.192C2747.19 176.023 2745.01 180.785 2740.87 184.211L2737.9 180.616C2740.9 178.135 2742.6 174.657 2742.88 169.918L2747.54 170.192ZM2740.91 184.173C2736.84 187.716 2731.67 189.409 2725.62 189.409V184.745C2730.76 184.745 2734.77 183.329 2737.85 180.654L2740.91 184.173ZM2725.62 189.409C2720.36 189.409 2715.88 187.954 2712.41 184.851L2715.52 181.375C2717.96 183.557 2721.25 184.745 2725.62 184.745V189.409ZM2712.46 184.896C2708.86 181.859 2707.2 177.475 2707.2 172.153H2711.87C2711.87 176.47 2713.17 179.392 2715.47 181.329L2712.46 184.896ZM2707.2 172.153C2707.2 165.955 2710.2 161.116 2715.81 157.79L2718.19 161.8C2713.84 164.382 2711.87 167.781 2711.87 172.153H2707.2ZM2715.81 157.79C2721.01 154.701 2728.98 151.45 2739.6 148.016L2741.03 152.453C2730.5 155.859 2722.93 158.982 2718.19 161.8L2715.81 157.79ZM2739.57 148.026C2750.08 144.469 2758.52 141.088 2764.92 137.889L2767.01 142.061C2760.35 145.391 2751.69 148.85 2741.06 152.444L2739.57 148.026ZM2764.94 137.88C2771.28 134.781 2776.76 130.275 2781.37 124.323L2785.06 127.18C2780.04 133.663 2774.01 138.64 2766.99 142.07L2764.94 137.88ZM2781.37 124.323C2785.81 118.605 2788.11 111.14 2788.11 101.734H2792.78C2792.78 111.915 2790.27 120.461 2785.06 127.18L2781.37 124.323ZM2788.11 101.734C2788.11 92.8321 2785.82 84.7951 2781.25 77.5644L2785.19 75.071C2790.25 83.0746 2792.78 91.9817 2792.78 101.734H2788.11ZM2781.23 77.5352C2776.82 70.3366 2770.33 64.5542 2761.66 60.2155L2763.74 56.0443C2773.1 60.7218 2780.29 67.0646 2785.21 75.1002L2781.23 77.5352ZM2761.66 60.2155C2753.03 55.9008 2742.75 53.6995 2730.75 53.6995V49.036C2743.32 49.036 2754.34 51.3428 2763.74 56.0443L2761.66 60.2155Z" fill="white"/>
<path d="M3052.98 216.69V53H3013.1V151.168L2976.49 53H2944.31L2907.47 151.401V53H2867.6V216.69H2914.7L2960.64 103.366L3006.11 216.69H3052.98ZM3121.52 184.745V151.634H3174.92V120.855H3121.52V84.9453H3181.91V53H3081.65V216.69H3181.91V184.745H3121.52ZM3267.03 51.3678C3255.06 51.3678 3244.33 53.3109 3234.85 57.1972C3225.37 61.0835 3217.75 66.8352 3212 74.4523C3206.4 82.0694 3203.45 91.241 3203.14 101.967H3245.58C3246.2 95.9046 3248.3 91.241 3251.87 87.9766C3255.45 84.8675 3260.11 83.313 3265.86 83.313C3271.77 83.313 3276.43 84.6343 3279.85 87.277C3283.27 90.0751 3284.98 93.8837 3284.98 98.7027C3284.98 102.744 3283.58 106.087 3280.79 108.729C3278.14 111.372 3274.8 113.548 3270.76 115.258C3266.87 116.968 3261.28 118.911 3253.97 121.088C3243.4 124.352 3234.77 127.617 3228.09 130.881C3221.4 134.146 3215.65 138.965 3210.83 145.338C3206.01 151.712 3203.6 160.028 3203.6 170.288C3203.6 185.522 3209.12 197.414 3220.16 205.964C3231.2 214.669 3245.58 219.022 3263.3 219.022C3281.33 219.022 3295.86 214.669 3306.9 205.964C3317.94 197.414 3323.85 185.445 3324.62 170.055H3281.49C3281.17 175.34 3279.23 179.46 3275.66 182.413C3272.08 185.522 3267.49 187.077 3261.9 187.077C3257.08 187.077 3253.19 185.755 3250.24 183.113C3247.29 180.626 3245.81 176.972 3245.81 172.153C3245.81 166.868 3248.3 162.749 3253.27 159.795C3258.25 156.841 3266.02 153.655 3276.59 150.235C3287.16 146.659 3295.71 143.24 3302.24 139.975C3308.92 136.711 3314.67 131.969 3319.49 125.751C3324.31 119.533 3326.72 111.527 3326.72 101.734C3326.72 92.4069 3324.31 83.9348 3319.49 76.3177C3314.83 68.7006 3307.99 62.638 3298.97 58.1299C3289.96 53.6218 3279.31 51.3678 3267.03 51.3678ZM3391.13 216.69V53H3351.26V216.69H3391.13ZM3521.93 81.9139H3460.83L3451.04 53H3409.3L3468.53 216.69H3514.7L3573.93 53H3531.72L3521.93 81.9139ZM3511.67 112.693L3491.38 172.62L3471.33 112.693H3511.67ZM3738.39 53H3698.51L3631.82 153.966V53H3591.95V216.69H3631.82L3698.51 115.258V216.69H3738.39V53ZM3844.7 51.3678C3829.31 51.3678 3815.17 54.9431 3802.27 62.0939C3789.52 69.2447 3779.34 79.1936 3771.72 91.9406C3764.26 104.843 3760.53 119.3 3760.53 135.311C3760.53 151.323 3764.26 165.702 3771.72 178.449C3779.34 191.196 3789.52 201.145 3802.27 208.296C3815.17 215.447 3829.31 219.022 3844.7 219.022C3860.09 219.022 3874.16 215.447 3886.91 208.296C3899.81 201.145 3909.92 191.196 3917.22 178.449C3924.68 165.702 3928.41 151.323 3928.41 135.311C3928.41 119.3 3924.68 104.843 3917.22 91.9406C3909.76 79.1936 3899.66 69.2447 3886.91 62.0939C3874.16 54.9431 3860.09 51.3678 3844.7 51.3678ZM3844.7 87.7434C3857.76 87.7434 3868.18 92.096 3875.95 100.801C3883.88 109.507 3887.84 121.01 3887.84 135.311C3887.84 149.768 3883.88 161.272 3875.95 169.822C3868.18 178.527 3857.76 182.88 3844.7 182.88C3831.49 182.88 3820.92 178.605 3812.99 170.055C3805.22 161.505 3801.33 149.924 3801.33 135.311C3801.33 120.855 3805.22 109.273 3812.99 100.568C3820.92 92.0183 3831.49 87.7434 3844.7 87.7434Z" fill="#D91D5A"/>
<path d="M4187.12 52.3097L4189.32 53.0892L4190.42 49.978H4187.12V52.3097ZM4129.06 216V218.332H4130.71L4131.26 216.779L4129.06 216ZM4079.16 216L4076.96 216.779L4077.51 218.332H4079.16V216ZM4021.1 52.3097V49.978H4017.8L4018.9 53.0892L4021.1 52.3097ZM4063.54 52.3097L4065.75 51.5824L4065.23 49.978H4063.54V52.3097ZM4104.11 175.894L4101.89 176.621L4104.1 183.35L4106.32 176.625L4104.11 175.894ZM4144.92 52.3097V49.978H4143.23L4142.7 51.5786L4144.92 52.3097ZM4184.92 51.5302L4126.86 215.221L4131.26 216.779L4189.32 53.0892L4184.92 51.5302ZM4129.06 213.668H4079.16V218.332H4129.06V213.668ZM4081.36 215.221L4023.3 51.5302L4018.9 53.0892L4076.96 216.779L4081.36 215.221ZM4021.1 54.6415H4063.54V49.978H4021.1V54.6415ZM4061.32 53.0371L4101.89 176.621L4106.33 175.166L4065.75 51.5824L4061.32 53.0371ZM4106.32 176.625L4147.13 53.0408L4142.7 51.5786L4101.9 175.162L4106.32 176.625ZM4144.92 54.6415H4187.12V49.978H4144.92V54.6415ZM4243.66 52.3097H4245.99V49.978H4243.66V52.3097ZM4243.66 216V218.332H4245.99V216H4243.66ZM4203.79 216H4201.45V218.332H4203.79V216ZM4203.79 52.3097V49.978H4201.45V52.3097H4203.79ZM4241.33 52.3097V216H4245.99V52.3097H4241.33ZM4243.66 213.668H4203.79V218.332H4243.66V213.668ZM4206.12 216V52.3097H4201.45V216H4206.12ZM4203.79 54.6415H4243.66V49.978H4203.79V54.6415ZM4379.12 62.5695L4380.21 60.5093L4380.21 60.5093L4379.12 62.5695ZM4408.96 91.4835L4406.93 92.6266L4406.94 92.6418L4406.95 92.6568L4408.96 91.4835ZM4408.96 176.826L4406.94 175.664L4406.94 175.673L4406.93 175.683L4408.96 176.826ZM4378.88 205.74L4377.8 203.675L4377.79 203.68L4378.88 205.74ZM4272.55 216H4270.22V218.332H4272.55V216ZM4272.55 52.3097V49.978H4270.22V52.3097H4272.55ZM4312.43 86.3536V84.0218H4310.1V86.3536H4312.43ZM4312.43 181.49H4310.1V183.822H4312.43V181.49ZM4333.88 54.6415C4350.82 54.6415 4365.51 57.998 4378.02 64.6297L4380.21 60.5093C4366.91 53.4614 4351.45 49.978 4333.88 49.978V54.6415ZM4378.02 64.6297C4390.54 71.2655 4400.16 80.5895 4406.93 92.6266L4411 90.3403C4403.78 77.5052 4393.5 67.5533 4380.21 60.5093L4378.02 64.6297ZM4406.95 92.6568C4413.86 104.534 4417.36 118.342 4417.36 134.155H4422.02C4422.02 117.633 4418.36 102.994 4410.98 90.3101L4406.95 92.6568ZM4417.36 134.155C4417.36 149.807 4413.87 163.621 4406.94 175.664L4410.98 177.989C4418.36 165.159 4422.02 150.526 4422.02 134.155H4417.36ZM4406.93 175.683C4400.16 187.713 4390.47 197.037 4377.8 203.675L4379.97 207.806C4393.41 200.764 4403.77 190.812 4411 177.969L4406.93 175.683ZM4377.79 203.68C4365.28 210.313 4350.66 213.668 4333.88 213.668V218.332C4351.3 218.332 4366.68 214.847 4379.98 207.8L4377.79 203.68ZM4333.88 213.668H4272.55V218.332H4333.88V213.668ZM4274.89 216V52.3097H4270.22V216H4274.89ZM4272.55 54.6415H4333.88V49.978H4272.55V54.6415ZM4331.32 183.822C4346.82 183.822 4359.21 179.574 4368.16 170.796L4364.89 167.467C4357.05 175.167 4345.96 179.158 4331.32 179.158V183.822ZM4368.16 170.796C4377.12 162.003 4381.45 149.674 4381.45 134.155H4376.78C4376.78 148.793 4372.72 159.782 4364.89 167.467L4368.16 170.796ZM4381.45 134.155C4381.45 118.633 4377.12 106.238 4368.17 97.2963L4364.88 100.594C4372.72 108.441 4376.78 119.519 4376.78 134.155H4381.45ZM4368.17 97.2963C4359.23 88.3545 4346.84 84.0218 4331.32 84.0218V88.6853C4345.95 88.6853 4357.03 92.7471 4364.88 100.594L4368.17 97.2963ZM4331.32 84.0218H4312.43V88.6853H4331.32V84.0218ZM4310.1 86.3536V181.49H4314.76V86.3536H4310.1ZM4312.43 183.822H4331.32V179.158H4312.43V183.822ZM4481.85 84.255V81.9232H4479.51V84.255H4481.85ZM4481.85 117.366H4479.51V119.698H4481.85V117.366ZM4535.24 117.366H4537.57V115.034H4535.24V117.366ZM4535.24 148.145V150.477H4537.57V148.145H4535.24ZM4481.85 148.145V145.814H4479.51V148.145H4481.85ZM4481.85 184.055H4479.51V186.387H4481.85V184.055ZM4542.24 184.055H4544.57V181.723H4542.24V184.055ZM4542.24 216V218.332H4544.57V216H4542.24ZM4441.97 216H4439.64V218.332H4441.97V216ZM4441.97 52.3097V49.978H4439.64V52.3097H4441.97ZM4542.24 52.3097H4544.57V49.978H4542.24V52.3097ZM4542.24 84.255V86.5868H4544.57V84.255H4542.24ZM4479.51 84.255V117.366H4484.18V84.255H4479.51ZM4481.85 119.698H4535.24V115.034H4481.85V119.698ZM4532.91 117.366V148.145H4537.57V117.366H4532.91ZM4535.24 145.814H4481.85V150.477H4535.24V145.814ZM4479.51 148.145V184.055H4484.18V148.145H4479.51ZM4481.85 186.387H4542.24V181.723H4481.85V186.387ZM4539.91 184.055V216H4544.57V184.055H4539.91ZM4542.24 213.668H4441.97V218.332H4542.24V213.668ZM4444.3 216V52.3097H4439.64V216H4444.3ZM4441.97 54.6415H4542.24V49.978H4441.97V54.6415ZM4539.91 52.3097V84.255H4544.57V52.3097H4539.91ZM4542.24 81.9232H4481.85V86.5868H4542.24V81.9232ZM4603.1 206.906L4601.96 208.94L4601.97 208.946L4603.1 206.906ZM4572.55 177.059L4570.54 178.227L4570.54 178.241L4570.55 178.256L4572.55 177.059ZM4572.55 90.5508L4570.55 89.3547L4570.55 89.3637L4570.54 89.3728L4572.55 90.5508ZM4603.1 60.7041L4601.97 58.6646L4601.96 58.6705L4603.1 60.7041ZM4687.74 60.7041L4686.6 62.7378L4686.61 62.7436L4687.74 60.7041ZM4718.06 90.5508L4716.03 91.7103L4716.04 91.7195L4716.05 91.7287L4718.06 90.5508ZM4718.06 177.059L4720.07 178.237L4720.08 178.227L4718.06 177.059ZM4687.74 206.906L4688.89 208.94L4688.89 208.94L4687.74 206.906ZM4676.79 168.199L4675.06 166.629L4675.05 166.637L4675.05 166.646L4676.79 168.199ZM4676.79 99.1783L4675.05 100.731L4675.06 100.748L4675.08 100.764L4676.79 99.1783ZM4613.83 98.9451L4612.12 97.3597L4612.11 97.3681L4612.1 97.3766L4613.83 98.9451ZM4613.83 168.432L4612.09 169.985L4612.1 170.001L4612.12 170.017L4613.83 168.432ZM4645.54 215.3C4630.53 215.3 4616.77 211.817 4604.23 204.867L4601.97 208.946C4615.23 216.296 4629.77 219.964 4645.54 219.964V215.3ZM4604.24 204.872C4591.86 197.924 4581.97 188.267 4574.56 175.863L4570.55 178.256C4578.38 191.346 4588.85 201.586 4601.96 208.94L4604.24 204.872ZM4574.57 175.892C4567.33 163.371 4563.69 149.322 4563.69 133.689H4559.03C4559.03 150.078 4562.85 164.943 4570.54 178.227L4574.57 175.892ZM4563.69 133.689C4563.69 118.055 4567.33 104.089 4574.57 91.7287L4570.54 89.3728C4562.85 102.507 4559.03 117.299 4559.03 133.689H4563.69ZM4574.56 91.7469C4581.97 79.3435 4591.86 69.686 4604.24 62.7378L4601.96 58.6705C4588.85 66.0238 4578.38 76.264 4570.55 89.3547L4574.56 91.7469ZM4604.23 62.7436C4616.77 55.793 4630.53 52.3097 4645.54 52.3097V47.6462C4629.77 47.6462 4615.23 51.3137 4601.97 58.6646L4604.23 62.7436ZM4645.54 52.3097C4660.55 52.3097 4674.22 55.7929 4686.6 62.7378L4688.89 58.6705C4675.77 51.3138 4661.31 47.6462 4645.54 47.6462V52.3097ZM4686.61 62.7436C4699.15 69.6889 4708.94 79.3342 4716.03 91.7103L4720.08 89.3912C4712.56 76.2734 4702.15 66.0208 4688.87 58.6646L4686.61 62.7436ZM4716.05 91.7287C4723.28 104.089 4726.92 118.055 4726.92 133.689H4731.58C4731.58 117.299 4727.76 102.507 4720.07 89.3728L4716.05 91.7287ZM4726.92 133.689C4726.92 149.322 4723.28 163.371 4716.04 175.892L4720.08 178.227C4727.76 164.943 4731.58 150.078 4731.58 133.689H4726.92ZM4716.05 175.881C4708.79 188.275 4698.99 197.927 4686.6 204.872L4688.89 208.94C4702 201.584 4712.4 191.338 4720.07 178.237L4716.05 175.881ZM4686.6 204.872C4674.22 211.817 4660.55 215.3 4645.54 215.3V219.964C4661.31 219.964 4675.77 216.296 4688.89 208.94L4686.6 204.872ZM4645.54 183.588C4659.17 183.588 4670.25 179.015 4678.52 169.752L4675.05 166.646C4667.77 174.793 4658.02 178.925 4645.54 178.925V183.588ZM4678.51 169.769C4686.91 160.546 4691.01 148.44 4691.01 133.689H4686.35C4686.35 147.54 4682.52 158.441 4675.06 166.629L4678.51 169.769ZM4691.01 133.689C4691.01 118.791 4686.91 106.671 4678.49 97.5928L4675.08 100.764C4682.51 108.785 4686.35 119.672 4686.35 133.689H4691.01ZM4678.52 97.6253C4670.25 88.3625 4659.17 83.7886 4645.54 83.7886V88.4522C4658.02 88.4522 4667.77 92.5836 4675.05 100.731L4678.52 97.6253ZM4645.54 83.7886C4631.77 83.7886 4620.55 88.2683 4612.12 97.3597L4615.54 100.531C4622.96 92.5223 4632.88 88.4522 4645.54 88.4522V83.7886ZM4612.1 97.3766C4603.84 106.46 4599.84 118.655 4599.84 133.689H4604.5C4604.5 119.497 4608.27 108.529 4615.55 100.514L4612.1 97.3766ZM4599.84 133.689C4599.84 148.576 4603.85 160.757 4612.09 169.985L4615.57 166.879C4608.26 158.696 4604.5 147.715 4604.5 133.689H4599.84ZM4612.12 170.017C4620.55 179.109 4631.77 183.588 4645.54 183.588V178.925C4632.88 178.925 4622.96 174.855 4615.54 166.846L4612.12 170.017Z" fill="white"/>
<path d="M4999.83 52.3097V216H4959.96V117.832L4923.35 216H4891.17L4854.33 117.599V216H4814.46V52.3097H4861.56L4907.49 165.634L4952.96 52.3097H4999.83ZM5130.4 187.086H5069.31L5059.52 216H5017.78L5077.01 52.3097H5123.18L5182.4 216H5140.2L5130.4 187.086ZM5120.14 156.307L5099.86 96.3802L5079.81 156.307H5120.14ZM5295.33 216L5240.3 143.715V216H5200.43V52.3097H5240.3V124.128L5294.87 52.3097H5341.73L5278.31 132.523L5344.07 216H5295.33ZM5402.89 84.255V117.366H5456.29V148.145H5402.89V184.055H5463.28V216H5363.01V52.3097H5463.28V84.255H5402.89ZM5572.64 216L5538.6 154.208H5529.04V216H5489.17V52.3097H5556.09C5568.99 52.3097 5579.95 54.5638 5588.97 59.0719C5598.14 63.58 5604.98 69.798 5609.49 77.726C5613.99 85.4986 5616.25 94.2039 5616.25 103.842C5616.25 114.723 5613.14 124.439 5606.92 132.989C5600.86 141.539 5591.84 147.601 5579.87 151.177L5617.65 216H5572.64ZM5529.04 125.994H5553.76C5561.06 125.994 5566.5 124.206 5570.08 120.631C5573.81 117.055 5575.68 112.003 5575.68 105.474C5575.68 99.256 5573.81 94.3593 5570.08 90.7839C5566.5 87.2086 5561.06 85.4209 5553.76 85.4209H5529.04V125.994Z" fill="#D91D5A"/>
<path d="M5884.12 216.69L5886.32 215.911L5887.42 219.022H5884.12V216.69ZM5826.06 53V50.6682H5827.71L5828.26 52.2205L5826.06 53ZM5776.16 53L5773.96 52.2205L5774.51 50.6682H5776.16V53ZM5718.1 216.69V219.022H5714.8L5715.9 215.911L5718.1 216.69ZM5760.54 216.69L5762.75 217.418L5762.23 219.022H5760.54V216.69ZM5801.11 93.1064L5798.89 92.3791L5801.1 85.6503L5803.32 92.3753L5801.11 93.1064ZM5841.92 216.69V219.022H5840.23L5839.7 217.421L5841.92 216.69ZM5881.92 217.47L5823.86 53.7795L5828.26 52.2205L5886.32 215.911L5881.92 217.47ZM5826.06 55.3318H5776.16V50.6682H5826.06V55.3318ZM5778.36 53.7795L5720.3 217.47L5715.9 215.911L5773.96 52.2205L5778.36 53.7795ZM5718.1 214.358H5760.54V219.022H5718.1V214.358ZM5758.32 215.963L5798.89 92.3791L5803.33 93.8338L5762.75 217.418L5758.32 215.963ZM5803.32 92.3753L5844.13 215.959L5839.7 217.421L5798.9 93.8375L5803.32 92.3753ZM5841.92 214.358H5884.12V219.022H5841.92V214.358ZM5940.66 216.69H5942.99V219.022H5940.66V216.69ZM5940.66 53V50.6682H5942.99V53H5940.66ZM5900.79 53H5898.45V50.6682H5900.79V53ZM5900.79 216.69V219.022H5898.45V216.69H5900.79ZM5938.33 216.69V53H5942.99V216.69H5938.33ZM5940.66 55.3318H5900.79V50.6682H5940.66V55.3318ZM5903.12 53V216.69H5898.45V53H5903.12ZM5900.79 214.358H5940.66V219.022H5900.79V214.358ZM6076.12 206.43L6077.21 208.491L6077.21 208.491L6076.12 206.43ZM6105.96 177.517L6103.93 176.373L6103.94 176.358L6103.95 176.343L6105.96 177.517ZM6105.96 92.1737L6103.94 93.3361L6103.94 93.3265L6103.93 93.3169L6105.96 92.1737ZM6075.88 63.2598L6074.8 65.3254L6074.79 65.32L6075.88 63.2598ZM5969.55 53H5967.22V50.6682H5969.55V53ZM5969.55 216.69V219.022H5967.22V216.69H5969.55ZM6009.43 182.646V184.978H6007.1V182.646H6009.43ZM6009.43 87.5102H6007.1V85.1784H6009.43V87.5102ZM6030.88 214.358C6047.82 214.358 6062.51 211.002 6075.02 204.37L6077.21 208.491C6063.91 215.539 6048.45 219.022 6030.88 219.022V214.358ZM6075.02 204.37C6087.54 197.735 6097.16 188.41 6103.93 176.373L6108 178.66C6100.78 191.495 6090.5 201.447 6077.21 208.491L6075.02 204.37ZM6103.95 176.343C6110.86 164.466 6114.36 150.658 6114.36 134.845H6119.02C6119.02 151.367 6115.36 166.006 6107.98 178.69L6103.95 176.343ZM6114.36 134.845C6114.36 119.193 6110.87 105.379 6103.94 93.3361L6107.98 91.0114C6115.36 103.841 6119.02 118.474 6119.02 134.845H6114.36ZM6103.93 93.3169C6097.16 81.2872 6087.47 71.9634 6074.8 65.3253L6076.97 61.1942C6090.41 68.2359 6100.77 78.1881 6108 91.0306L6103.93 93.3169ZM6074.79 65.32C6062.28 58.6867 6047.66 55.3318 6030.88 55.3318V50.6682C6048.3 50.6682 6063.68 54.1532 6076.98 61.1996L6074.79 65.32ZM6030.88 55.3318H5969.55V50.6682H6030.88V55.3318ZM5971.89 53V216.69H5967.22V53H5971.89ZM5969.55 214.358H6030.88V219.022H5969.55V214.358ZM6028.32 85.1784C6043.82 85.1784 6056.21 89.4263 6065.16 98.2044L6061.89 101.533C6054.05 93.8331 6042.96 89.842 6028.32 89.842V85.1784ZM6065.16 98.2044C6074.12 106.997 6078.45 119.326 6078.45 134.845H6073.78C6073.78 120.207 6069.72 109.218 6061.89 101.533L6065.16 98.2044ZM6078.45 134.845C6078.45 150.367 6074.12 162.762 6065.17 171.704L6061.88 168.406C6069.72 160.559 6073.78 149.481 6073.78 134.845H6078.45ZM6065.17 171.704C6056.23 180.646 6043.84 184.978 6028.32 184.978V180.315C6042.95 180.315 6054.03 176.253 6061.88 168.406L6065.17 171.704ZM6028.32 184.978H6009.43V180.315H6028.32V184.978ZM6007.1 182.646V87.5102H6011.76V182.646H6007.1ZM6009.43 85.1784H6028.32V89.842H6009.43V85.1784ZM6178.85 184.745V187.077H6176.51V184.745H6178.85ZM6178.85 151.634H6176.51V149.302H6178.85V151.634ZM6232.24 151.634H6234.57V153.966H6232.24V151.634ZM6232.24 120.855V118.523H6234.57V120.855H6232.24ZM6178.85 120.855V123.186H6176.51V120.855H6178.85ZM6178.85 84.9453H6176.51V82.6135H6178.85V84.9453ZM6239.24 84.9453H6241.57V87.277H6239.24V84.9453ZM6239.24 53V50.6682H6241.57V53H6239.24ZM6138.97 53H6136.64V50.6682H6138.97V53ZM6138.97 216.69V219.022H6136.64V216.69H6138.97ZM6239.24 216.69H6241.57V219.022H6239.24V216.69ZM6239.24 184.745V182.413H6241.57V184.745H6239.24ZM6176.51 184.745V151.634H6181.18V184.745H6176.51ZM6178.85 149.302H6232.24V153.966H6178.85V149.302ZM6229.91 151.634V120.855H6234.57V151.634H6229.91ZM6232.24 123.186H6178.85V118.523H6232.24V123.186ZM6176.51 120.855V84.9453H6181.18V120.855H6176.51ZM6178.85 82.6135H6239.24V87.277H6178.85V82.6135ZM6236.91 84.9453V53H6241.57V84.9453H6236.91ZM6239.24 55.3318H6138.97V50.6682H6239.24V55.3318ZM6141.3 53V216.69H6136.64V53H6141.3ZM6138.97 214.358H6239.24V219.022H6138.97V214.358ZM6236.91 216.69V184.745H6241.57V216.69H6236.91ZM6239.24 187.077H6178.85V182.413H6239.24V187.077ZM6300.1 62.0939L6298.96 60.0602L6298.97 60.0544L6300.1 62.0939ZM6269.55 91.9406L6267.54 90.7732L6267.54 90.7588L6267.55 90.7445L6269.55 91.9406ZM6269.55 178.449L6267.55 179.645L6267.55 179.636L6267.54 179.627L6269.55 178.449ZM6300.1 208.296L6298.97 210.335L6298.96 210.33L6300.1 208.296ZM6384.74 208.296L6383.6 206.262L6383.61 206.256L6384.74 208.296ZM6415.06 178.449L6413.03 177.29L6413.04 177.28L6413.05 177.271L6415.06 178.449ZM6415.06 91.9406L6417.07 90.7626L6417.08 90.7732L6415.06 91.9406ZM6384.74 62.0939L6385.89 60.0603L6385.89 60.0603L6384.74 62.0939ZM6373.79 100.801L6372.06 102.371L6372.05 102.363L6372.05 102.354L6373.79 100.801ZM6373.79 169.822L6372.05 168.269L6372.06 168.252L6372.08 168.236L6373.79 169.822ZM6310.83 170.055L6309.12 171.64L6309.11 171.632L6309.1 171.623L6310.83 170.055ZM6310.83 100.568L6309.09 99.0151L6309.1 98.9987L6309.12 98.9826L6310.83 100.568ZM6342.54 53.6995C6327.53 53.6995 6313.77 57.1828 6301.23 64.1334L6298.97 60.0544C6312.23 52.7035 6326.77 49.036 6342.54 49.036V53.6995ZM6301.24 64.1275C6288.86 71.0758 6278.97 80.7333 6271.56 93.1367L6267.55 90.7445C6275.38 77.6538 6285.85 67.4136 6298.96 60.0603L6301.24 64.1275ZM6271.57 93.1079C6264.33 105.629 6260.69 119.678 6260.69 135.311H6256.03C6256.03 118.922 6259.85 104.057 6267.54 90.7732L6271.57 93.1079ZM6260.69 135.311C6260.69 150.945 6264.33 164.911 6271.57 177.271L6267.54 179.627C6259.85 166.493 6256.03 151.701 6256.03 135.311H6260.69ZM6271.56 177.253C6278.97 189.656 6288.86 199.314 6301.24 206.262L6298.96 210.33C6285.85 202.976 6275.38 192.736 6267.55 179.645L6271.56 177.253ZM6301.23 206.256C6313.77 213.207 6327.53 216.69 6342.54 216.69V221.354C6326.77 221.354 6312.23 217.686 6298.97 210.335L6301.23 206.256ZM6342.54 216.69C6357.55 216.69 6371.22 213.207 6383.6 206.262L6385.89 210.33C6372.77 217.686 6358.31 221.354 6342.54 221.354V216.69ZM6383.61 206.256C6396.15 199.311 6405.94 189.666 6413.03 177.29L6417.08 179.609C6409.56 192.727 6399.15 202.979 6385.87 210.335L6383.61 206.256ZM6413.05 177.271C6420.28 164.911 6423.92 150.945 6423.92 135.311H6428.58C6428.58 151.701 6424.76 166.493 6417.07 179.627L6413.05 177.271ZM6423.92 135.311C6423.92 119.678 6420.28 105.629 6413.04 93.1079L6417.08 90.7732C6424.76 104.057 6428.58 118.922 6428.58 135.311H6423.92ZM6413.05 93.1185C6405.79 80.7251 6395.99 71.0733 6383.6 64.1275L6385.89 60.0603C6399 67.416 6409.4 77.662 6417.07 90.7626L6413.05 93.1185ZM6383.6 64.1275C6371.22 57.1827 6357.55 53.6995 6342.54 53.6995V49.036C6358.31 49.036 6372.77 52.7036 6385.89 60.0603L6383.6 64.1275ZM6342.54 85.4116C6356.17 85.4116 6367.25 89.9855 6375.52 99.2483L6372.05 102.354C6364.77 94.2065 6355.02 90.0751 6342.54 90.0751V85.4116ZM6375.51 99.2312C6383.91 108.454 6388.01 120.56 6388.01 135.311H6383.35C6383.35 121.46 6379.52 110.559 6372.06 102.371L6375.51 99.2312ZM6388.01 135.311C6388.01 150.209 6383.91 162.329 6375.49 171.407L6372.08 168.236C6379.51 160.215 6383.35 149.328 6383.35 135.311H6388.01ZM6375.52 171.375C6367.25 180.637 6356.17 185.211 6342.54 185.211V180.548C6355.02 180.548 6364.77 176.416 6372.05 168.269L6375.52 171.375ZM6342.54 185.211C6328.77 185.211 6317.55 180.732 6309.12 171.64L6312.54 168.469C6319.96 176.478 6329.88 180.548 6342.54 180.548V185.211ZM6309.1 171.623C6300.84 162.54 6296.84 150.345 6296.84 135.311H6301.5C6301.5 149.503 6305.27 160.471 6312.55 168.486L6309.1 171.623ZM6296.84 135.311C6296.84 120.424 6300.85 108.243 6309.09 99.0151L6312.57 102.121C6305.26 110.304 6301.5 121.285 6301.5 135.311H6296.84ZM6309.12 98.9826C6317.55 89.8913 6328.77 85.4116 6342.54 85.4116V90.0751C6329.88 90.0751 6319.96 94.1453 6312.54 102.154L6309.12 98.9826Z" fill="white"/>
<path d="M6696.83 216.69V53H6656.96V151.168L6620.35 53H6588.17L6551.33 151.401V53H6511.46V216.69H6558.56L6604.49 103.366L6649.96 216.69H6696.83ZM6827.4 81.9139H6766.31L6756.52 53H6714.78L6774.01 216.69H6820.18L6879.4 53H6837.2L6827.4 81.9139ZM6817.14 112.693L6796.86 172.62L6776.81 112.693H6817.14ZM6992.33 53L6937.3 125.285V53H6897.43V216.69H6937.3V144.872L6991.87 216.69H7038.73L6975.31 136.477L7041.07 53H6992.33ZM7099.89 184.745V151.634H7153.29V120.855H7099.89V84.9453H7160.28V53H7060.01V216.69H7160.28V184.745H7099.89ZM7269.64 53L7235.6 114.792H7226.04V53H7186.17V216.69H7253.09C7265.99 216.69 7276.95 214.436 7285.97 209.928C7295.14 205.42 7301.98 199.202 7306.49 191.274C7310.99 183.501 7313.25 174.796 7313.25 165.158C7313.25 154.277 7310.14 144.561 7303.92 136.011C7297.86 127.461 7288.84 121.399 7276.87 117.823L7314.65 53H7269.64ZM7226.04 143.006H7250.76C7258.06 143.006 7263.5 144.794 7267.08 148.369C7270.81 151.945 7272.68 156.997 7272.68 163.526C7272.68 169.744 7270.81 174.641 7267.08 178.216C7263.5 181.791 7258.06 183.579 7250.76 183.579H7226.04V143.006Z" fill="#D91D5A"/>
</svg>
